<?xml version="1.0" encoding="UTF-8"?><svg id="Layer_2" xmlns="http://www.w3.org/2000/svg" viewBox="0 0 770.27 438.03"><defs><style>.cls-1{fill:#fff;}</style></defs><g id="Layer_1-2"><g><g><g><path d="M370.52,430.53c-6.32,0-14.02-1.09-20.6-2.91-.56-.16-1.1-.38-1.61-.66-1.13-.62-2.14-1.25-3.07-1.93-6.28-4.57-10.94-11.21-13.87-19.76-4.38-12.79-9.19-26.75-14.72-42.67-2.87-8.25-5.75-16.5-8.64-24.75-5.54-15.83-11.27-32.21-16.77-48.38-5.94-17.45-11.77-35.23-17.41-52.43-1.5-4.59-3.01-9.17-4.52-13.75-5.12-15.55-10.1-30.97-14.73-45.32l-3.26-10.09c-5.56-17.23-11.32-35.05-16.88-52.62-3.24-10.23-6.4-20.66-9.46-30.74-1.23-4.04-2.45-8.09-3.69-12.13-.1-.31-.17-.63-.22-.95-1.31-7.28-1.28-13.69,.12-19.51,.03-.12,.06-.24,.1-.36,.92-3.12,1.93-6.57,3.94-9.79,6.59-10.52,17.22-16.94,31.59-19.1,4.56-.69,9.17-1.27,13.63-1.83,2.94-.37,5.87-.74,8.81-1.14,3.43-.47,6.86-.96,10.28-1.46,4.86-.7,9.88-1.42,14.86-2.06,4.51-.58,9.07-1.09,13.49-1.59,3.86-.43,7.85-.88,11.75-1.37,8.65-1.08,18.09-2.35,28.88-3.88,2.52-.36,17.23-1.59,20.15-1.83,.21-.02,.41-.03,.62-.03,3.53,0,7.88,1.46,9.89,2.33l1.32,.56c2.78,1.19,4.97,2.12,8.09,3.72,9,4.63,15.48,12.18,19.26,22.45,6.52,17.71,13.09,35.74,19.44,53.17,3.94,10.79,7.87,21.59,11.82,32.37,9.98,27.28,18.19,49.63,25.83,70.34,4.26,11.55,8.54,23.1,12.83,34.65,5.53,14.91,11.24,30.32,16.82,45.5,4.27,11.62,8.54,23.46,12.66,34.9,2.65,7.34,5.29,14.69,7.96,22.02,.1,.29,.23,.56,.35,.84l.13,.29c1.17,2.72,1.77,5.61,1.77,8.58v9.28c0,1.61-.1,4.01-.96,6.52-2.39,10.36-8.23,18.05-16.92,22.26-5.81,2.81-11.79,5.2-17.58,7.51-1.39,.56-2.79,1.11-4.18,1.67-10.73,4.34-21.47,8.65-32.21,12.97-8.97,3.6-17.93,7.2-26.89,10.82-4.46,1.8-8.9,3.62-13.35,5.45-8.07,3.31-16.41,6.73-24.71,9.95-4.14,1.61-8.34,2.84-12.4,4.02l-.84,.25c-.37,.11-.74,.19-1.12,.24-1.74,.23-3.68,.35-5.77,.35Zm6.42-399.43c-2.95,0-6.46,.61-9.86,1.2-1.83,.32-3.72,.64-5.55,.88-4.41,.57-8.88,1.1-13.2,1.62-5.42,.64-11.02,1.31-16.49,2.05-6.01,.82-12.13,1.74-18.05,2.63-5.13,.77-10.44,1.57-15.69,2.3-6.08,.85-12.25,1.66-18.21,2.45-6.39,.84-12.99,1.71-19.46,2.62-4.47,.63-8.29,4.03-9.29,8.26-.2,.86-.19,1.85,.03,2.86l.18,.83c.43,1.96,.84,3.81,1.39,5.47,12.86,38.74,25.74,77.48,38.61,116.21,8.98,27.01,17.96,54.02,26.93,81.03,3.17,9.53,6.3,19.07,9.44,28.62,3.98,12.12,8.1,24.64,12.21,36.93l1.29,3.87c6.97,20.82,14.17,42.35,21.59,63.38,2.11,5.98,8.05,10,14.78,10h0c2.17,0,4.28-.43,6.26-1.27,6.33-2.69,12.79-5.23,19.04-7.68l4.87-1.92c6.16-2.43,12.32-4.85,18.48-7.27,7.85-3.08,15.71-6.16,23.55-9.27,4.73-1.88,9.54-3.88,14.2-5.81,10.09-4.19,20.52-8.52,31.16-12.05,3.97-1.32,7.18-4.16,9.06-8,1.85-3.8,2.14-8.16,.79-11.96-8.08-22.63-16.31-45.33-23.3-64.55-8.85-24.34-17.9-49.07-26.65-72.98l-.62-1.7c-4.18-11.41-8.36-22.81-12.55-34.22-4.71-12.82-9.41-25.65-14.1-38.47-2.94-8.04-5.87-16.1-8.8-24.15-5.71-15.71-11.62-31.95-17.54-47.87-2.54-6.82-4.72-12.44-7.8-17.39-2.73-4.4-5.35-5.22-14.5-6.52-.65-.09-1.39-.14-2.21-.14Z"/><path class="cls-1" d="M379.27,15c1.93,0,5.15,.96,6.93,1.72,3.45,1.48,5.61,2.36,8.93,4.07,7.68,3.95,12.71,10.39,15.65,18.37,10.48,28.49,20.83,57.02,31.26,85.53,8.58,23.46,17.19,46.92,25.84,70.36,9.86,26.72,19.82,53.41,29.65,80.14,6.96,18.94,13.73,37.94,20.61,56.9,.19,.52,.42,1.02,.63,1.53,.76,1.78,1.16,3.69,1.16,5.62v9.28c0,1.45-.12,2.93-.63,4.3-.03,.08-.06,.17-.07,.25-1.72,7.76-5.75,14-12.95,17.49-6.93,3.35-14.15,6.1-21.29,8.99-19.69,7.96-39.4,15.84-59.1,23.79-12.66,5.11-25.24,10.42-37.96,15.36-4.11,1.6-8.38,2.82-12.63,4.06-1.45,.19-3.07,.28-4.78,.28-5.86,0-12.89-1.05-18.6-2.64-.79-.43-1.54-.9-2.26-1.42-5.5-4-8.98-9.67-11.19-16.12-4.88-14.25-9.79-28.48-14.74-42.7-8.46-24.36-17.09-48.67-25.4-73.08-7.48-21.98-14.65-44.06-21.9-66.11-4.96-15.08-9.85-30.18-14.72-45.28-6.74-20.88-13.5-41.75-20.12-62.67-4.5-14.22-8.77-28.52-13.13-42.79h0c-1.08-5.99-1.18-11.54,.02-16.52,.81-2.78,1.62-5.56,3.1-7.92,6.01-9.6,15.47-14.03,26.35-15.67,7.43-1.12,14.9-1.94,22.34-2.95,8.36-1.14,16.71-2.44,25.08-3.51,8.39-1.08,16.82-1.91,25.21-2.96,9.68-1.21,19.34-2.53,29-3.89,2.44-.35,19.72-1.78,19.72-1.78m-1.68,396.83c3.09,0,6.22-.6,9.19-1.87,7.84-3.34,15.8-6.39,23.73-9.53,14.01-5.53,28.04-10.99,42.04-16.54,14.98-5.94,29.69-12.65,44.96-17.72,12.46-4.14,18.71-17.93,14.54-29.6-7.7-21.56-15.49-43.08-23.31-64.59-9.06-24.91-18.17-49.81-27.28-74.7-8.87-24.24-17.79-48.45-26.65-72.69-8.78-24.02-17.44-48.08-26.35-72.05-2.39-6.42-4.87-12.96-8.45-18.73-4.64-7.48-10.39-8.65-19.81-9.99-1.05-.15-2.15-.22-3.27-.22-5.35,0-11.28,1.48-16.37,2.14-9.91,1.28-19.84,2.33-29.74,3.68-11.27,1.53-22.5,3.36-33.76,4.93-12.55,1.76-25.13,3.3-37.68,5.07-7.38,1.04-13.79,6.51-15.54,13.97-.48,2.04-.44,4.16,.01,6.21,.53,2.37,1.02,4.75,1.78,7.04,21.82,65.76,43.71,131.5,65.55,197.25,7.25,21.84,14.35,43.74,21.65,65.56,7.53,22.49,15.03,45,22.92,67.36,3.31,9.4,12.41,15.01,21.85,15.01M379.27,0c-.41,0-.83,.02-1.24,.05-5.33,.44-17.99,1.51-20.58,1.88-10.69,1.52-20.1,2.78-28.76,3.86-3.85,.48-7.81,.93-11.65,1.36-4.45,.5-9.04,1.02-13.61,1.61-5.03,.65-10.07,1.37-14.95,2.08-3.37,.49-6.84,.99-10.24,1.45-2.88,.39-5.86,.77-8.74,1.13-4.5,.57-9.16,1.15-13.81,1.85-16.63,2.5-29.02,10.08-36.83,22.54-2.57,4.1-3.78,8.25-4.76,11.59l-.02,.08c-.07,.24-.13,.48-.19,.72-1.64,6.83-1.71,14.22-.21,22.59,.11,.61,.25,1.22,.43,1.81,1.23,4.02,2.45,8.04,3.67,12.06,3.07,10.12,6.25,20.58,9.5,30.87,5.58,17.64,11.36,35.52,16.94,52.81l3.21,9.94c4.63,14.34,9.62,29.75,14.75,45.36,1.51,4.58,3.01,9.16,4.51,13.74,5.65,17.22,11.49,35.03,17.44,52.52,5.51,16.19,11.24,32.57,16.78,48.41,2.89,8.25,5.78,16.51,8.65,24.77,5.52,15.9,10.34,29.84,14.71,42.64,3.43,10.03,9,17.9,16.55,23.4,1.2,.87,2.46,1.67,3.87,2.44,1.02,.56,2.1,1,3.22,1.31,7.2,1.99,15.65,3.18,22.61,3.18,2.42,0,4.7-.14,6.76-.42,.76-.1,1.51-.26,2.24-.47l.85-.25c4.2-1.23,8.55-2.5,12.99-4.23,8.36-3.25,16.73-6.68,24.83-10,4.37-1.79,8.89-3.64,13.32-5.43,8.91-3.6,17.83-7.18,26.74-10.76,10.61-4.26,21.58-8.67,32.36-13.03,1.38-.56,2.77-1.11,4.16-1.67,5.9-2.36,12.01-4.8,18.05-7.72,10.71-5.19,17.92-14.5,20.88-26.98,1.09-3.4,1.23-6.48,1.23-8.55v-9.28c0-4-.8-7.88-2.38-11.55l-.13-.3c-.07-.15-.14-.31-.2-.46-2.66-7.32-5.3-14.64-7.94-21.97-4.13-11.46-8.4-23.31-12.68-34.95-5.59-15.23-11.33-30.68-16.87-45.62-4.27-11.51-8.54-23.02-12.79-34.54-7.63-20.69-15.84-43.04-25.82-70.32-3.96-10.81-7.9-21.63-11.84-32.44-6.35-17.41-12.91-35.41-19.43-53.11-4.39-11.92-12.3-21.09-22.87-26.53-3.35-1.72-5.77-2.76-8.57-3.95l-1.31-.56c-1.14-.49-7.13-2.93-12.85-2.93h0Zm-120.75,56.53c.42-1.12,1.63-2.06,2.95-2.25,6.43-.91,13.02-1.78,19.39-2.61,5.98-.79,12.17-1.6,18.28-2.46,5.28-.74,10.61-1.54,15.76-2.31,5.9-.89,11.99-1.8,17.95-2.61,5.4-.74,10.96-1.4,16.34-2.04,4.35-.52,8.84-1.05,13.3-1.63,1.99-.26,3.96-.6,5.86-.93,3.09-.53,6.28-1.09,8.58-1.09,.57,0,.94,.04,1.14,.06,8.01,1.14,8.23,1.51,9.19,3.06,2.71,4.36,4.75,9.62,7.14,16.05,5.9,15.88,11.8,32.09,17.5,47.77,2.93,8.07,5.87,16.14,8.82,24.2,4.69,12.84,9.4,25.67,14.11,38.49,4.18,11.4,8.37,22.8,12.54,34.2l.67,1.83c8.74,23.87,17.77,48.56,26.6,72.85,6.99,19.22,15.22,41.92,23.28,64.51,.68,1.91,.51,4.15-.46,6.15-.57,1.17-1.93,3.26-4.68,4.17-10.9,3.62-21.46,8.01-31.67,12.25-4.63,1.92-9.41,3.91-14.09,5.76-7.83,3.11-15.82,6.24-23.54,9.27-6.16,2.42-12.32,4.83-18.48,7.26-1.63,.65-3.27,1.29-4.91,1.93-6.28,2.47-12.78,5.02-19.19,7.74-1.04,.44-2.16,.67-3.32,.67-2.96,0-6.49-1.55-7.71-5-7.4-20.99-14.6-42.51-21.57-63.33l-1.27-3.81c-4.11-12.28-8.23-24.81-12.21-36.93-3.08-9.37-6.26-19.06-9.43-28.6-8.94-26.92-17.89-53.84-26.84-80.76-12.69-38.18-25.82-77.66-38.7-116.49-.43-1.29-.8-2.96-1.19-4.73l-.15-.66h0Z"/></g><path class="cls-1" d="M243.35,57.49c.06-2.33,.52-6.04,2.8-9.59,3.54-5.49,9.44-7.4,13.22-8.47,14.13-4.02,25.67-3.39,37.68-5.07,11.26-1.58,22.49-3.4,33.76-4.93,9.9-1.35,19.83-2.39,29.74-3.68,6.16-.8,12.28-2.46,18.43-2.54,8.57-.11,16.38,3.13,21.02,10.61,3.58,5.77,6.07,12.31,8.45,18.73,8.91,23.97,17.57,48.03,26.35,72.05,8.86,24.24,17.78,48.46,26.65,72.69,9.11,24.89,18.22,49.79,27.28,74.7,7.82,21.51,15.62,43.04,23.31,64.59,4.17,11.67-2.09,25.46-14.54,29.6-15.26,5.07-29.98,11.78-44.96,17.72-14,5.55-28.04,11.01-42.04,16.54-7.93,3.13-15.89,6.19-23.73,9.52-12.07,5.13-26.65-.67-31.05-13.14-7.89-22.37-15.39-44.87-22.92-67.36-7.3-21.82-14.39-43.72-21.65-65.56-21.84-65.75-43.73-131.49-65.55-197.25-.99-2.97-1.52-6.1-2.27-9.16Zm63.62-12.29l.04,.21c3.59-.57,7.17-1.17,10.76-1.69,8.58-1.24,17.18-2.32,25.73-3.76,1.33-.22,3.24-1.95,3.36-3.14,.16-1.55-.79-3.82-2.03-4.72-1.2-.87-3.41-.65-5.12-.44-4.29,.53-8.54,1.34-12.82,2.01-7.74,1.21-15.5,2.3-23.2,3.72-1.22,.22-3.07,2.01-3.01,2.97,.1,1.6,1.23,3.42,2.47,4.55,.74,.68,2.51,.23,3.82,.29Z"/><path d="M306.98,45.19c-1.31-.06-3.08,.39-3.82-.29-1.24-1.13-2.37-2.95-2.47-4.55-.06-.96,1.8-2.75,3.01-2.97,7.7-1.43,15.46-2.51,23.2-3.72,4.27-.67,8.53-1.48,12.82-2.01,1.71-.21,3.92-.43,5.12,.44,1.24,.9,2.18,3.17,2.03,4.72-.12,1.19-2.03,2.92-3.36,3.14-8.54,1.45-17.15,2.53-25.73,3.76-3.59,.52-7.17,1.12-10.76,1.69l-.04-.21Z"/></g><g><path class="cls-1" d="M436.55,241.79v48.82l322.32-5.47c-9.03-10.33-6.24-17.85,5.28-35.95l-327.6-7.41Z"/><polygon class="cls-1" points="63.5 171.73 180.87 171.73 209.61 166.94 209.61 157.18 252.13 157.18 252.13 172.4 253.28 216.07 271.82 157.18 333.47 157.18 746.51 238.86 727.81 259.8 158.03 248.62 59.05 219.74 63.5 171.73"/><g><path d="M91.24,226.64c3.29,7.17,5.48,14.54,6.57,22.11-2.89,1.1-5.58,1.99-8.07,2.69-2.49,.7-4.88,1.22-7.17,1.57-2.29,.35-4.56,.6-6.8,.75-2.24,.15-4.56,.22-6.95,.22-8.47,0-15.91-1.37-22.34-4.11-6.43-2.74-11.8-6.55-16.14-11.43-4.33-4.88-7.6-10.71-9.79-17.48-2.19-6.77-3.29-14.14-3.29-22.11s1.14-15.36,3.44-22.19c2.29-6.82,5.6-12.72,9.94-17.7,4.33-4.98,9.69-8.86,16.06-11.65,6.37-2.79,13.6-4.18,21.66-4.18,4.78,0,9.31,.35,13.6,1.05,4.28,.7,9.06,2.09,14.34,4.18-.2,4.09-.95,8.05-2.24,11.88-1.3,3.84-2.64,7.2-4.03,10.09-1.99-.7-3.81-1.29-5.45-1.79-1.64-.5-3.21-.9-4.71-1.2-1.49-.3-2.99-.52-4.48-.67s-3.09-.22-4.78-.22c-8.07,0-14.32,2.72-18.75,8.14-4.43,5.43-6.65,13.52-6.65,24.28,0,21.12,8.86,31.68,26.6,31.68,3.19,0,6.2-.3,9.04-.9,2.84-.6,6.3-1.59,10.38-2.99Z"/><path d="M126.2,221.71c1.1,4.09,3.01,6.97,5.75,8.67,2.74,1.69,6.35,2.54,10.83,2.54,2.89,0,6.13-.35,9.71-1.05,3.59-.7,7.12-1.74,10.61-3.14,1.39,2.59,2.61,5.68,3.66,9.26,1.05,3.59,1.62,7.32,1.72,11.21-8.87,3.29-17.93,4.93-27.19,4.93-7.17,0-13.32-1-18.45-2.99-5.13-1.99-9.32-4.76-12.55-8.29-3.24-3.53-5.63-7.74-7.17-12.63-1.55-4.88-2.32-10.21-2.32-15.99s.8-11.01,2.39-15.99c1.59-4.98,3.98-9.31,7.17-13,3.19-3.68,7.17-6.6,11.95-8.74,4.78-2.14,10.36-3.21,16.73-3.21,5.28,0,9.99,.9,14.12,2.69,4.13,1.79,7.64,4.26,10.53,7.4,2.89,3.14,5.1,6.92,6.65,11.36,1.54,4.43,2.32,9.24,2.32,14.42,0,2.69-.13,5.11-.37,7.25-.25,2.14-.47,3.91-.67,5.3h-45.42Zm23.61-17.18c-.2-3.49-1.27-6.4-3.21-8.74-1.94-2.34-4.76-3.51-8.44-3.51-3.19,0-5.93,1-8.22,2.99-2.29,1.99-3.64,5.08-4.03,9.26h23.91Z"/><path d="M185.07,175.1c2.19-.5,4.36-.85,6.5-1.05,2.14-.2,4.21-.3,6.2-.3,1.89,0,3.93,.1,6.13,.3,2.19,.2,4.33,.55,6.43,1.05l-.15,56.18h28.24c.5,1.99,.82,3.84,.97,5.53,.15,1.69,.22,3.34,.22,4.93s-.07,3.26-.22,5.01c-.15,1.74-.47,3.61-.97,5.6h-53.49l.15-77.25Z"/><path d="M250.36,175.1c2.19-.5,4.36-.85,6.5-1.05,2.14-.2,4.21-.3,6.2-.3,1.89,0,3.93,.1,6.13,.3,2.19,.2,4.33,.55,6.43,1.05l-.15,56.18h28.24c.5,1.99,.82,3.84,.97,5.53,.15,1.69,.22,3.34,.22,4.93s-.07,3.26-.22,5.01c-.15,1.74-.47,3.61-.97,5.6h-53.49l.15-77.25Z"/><path d="M307.59,145.36c2.79-.5,5.48-.85,8.07-1.05,2.59-.2,4.88-.3,6.87-.3,1.89,0,3.86,.07,5.9,.22,2.04,.15,4.36,.47,6.95,.97l12.4,68.28c2.49-10.96,4.98-22.39,7.47-34.29,2.49-11.9,4.93-23.23,7.32-33.99,1.79-.3,3.78-.57,5.98-.82,2.19-.25,4.43-.37,6.72-.37,1.99,0,4.03,.13,6.13,.37,2.09,.25,3.88,.52,5.38,.82l15.54,69.03,12.4-69.03c2.59-.5,4.78-.82,6.57-.97s3.64-.22,5.53-.22c1.99,0,4.08,.07,6.28,.22,2.19,.15,4.68,.47,7.47,.97l-25.7,106.68c-1.49,.3-3.41,.6-5.75,.9-2.34,.3-4.91,.45-7.69,.45s-5.51-.17-8.14-.52c-2.64-.35-4.41-.62-5.3-.82l-14.19-61.86-15.09,61.86c-.9,.2-2.57,.47-5.01,.82-2.44,.35-5.06,.52-7.84,.52s-5.28-.15-7.47-.45c-2.19-.3-4.03-.6-5.53-.9l-25.25-106.53Z"/><path d="M478.07,254.14c-6.27,0-11.8-.95-16.58-2.84-4.78-1.89-8.79-4.61-12.03-8.14-3.24-3.53-5.68-7.77-7.32-12.7-1.64-4.93-2.47-10.38-2.47-16.36s.82-11.63,2.47-16.66c1.64-5.03,4.08-9.34,7.32-12.92,3.24-3.59,7.25-6.35,12.03-8.29,4.78-1.94,10.31-2.91,16.58-2.91s11.95,.97,16.73,2.91c4.78,1.94,8.79,4.71,12.03,8.29,3.24,3.59,5.68,7.9,7.32,12.92,1.64,5.03,2.47,10.59,2.47,16.66s-.82,11.43-2.47,16.36c-1.64,4.93-4.09,9.17-7.32,12.7-3.24,3.54-7.25,6.25-12.03,8.14-4.78,1.89-10.36,2.84-16.73,2.84Zm0-20.47c4.38,0,7.64-1.69,9.79-5.08,2.14-3.38,3.21-8.22,3.21-14.49s-1.07-11.25-3.21-14.64c-2.14-3.39-5.4-5.08-9.79-5.08s-7.62,1.69-9.71,5.08c-2.09,3.39-3.14,8.27-3.14,14.64s1.05,11.11,3.14,14.49c2.09,3.39,5.33,5.08,9.71,5.08Z"/><path d="M529.62,175.39c4.68-.6,9.54-1.09,14.57-1.49,5.03-.4,9.79-.6,14.27-.6,12.05,0,21.09,2.27,27.12,6.8,6.03,4.53,9.04,10.88,9.04,19.05,0,3.09-.35,5.78-1.05,8.07-.7,2.29-1.55,4.26-2.54,5.9-1,1.64-2.04,2.96-3.14,3.96-1.1,1-1.99,1.79-2.69,2.39l17.03,32.57c-1.99,.4-4.21,.7-6.65,.9-2.44,.2-4.81,.3-7.1,.3-2.79,0-5.48-.1-8.07-.3-2.59-.2-4.73-.5-6.42-.9l-16.59-35.26,2.09-1.2c3.49-1.99,5.88-4.11,7.17-6.35,1.29-2.24,1.94-4.66,1.94-7.25s-.77-4.71-2.32-6.35c-1.55-1.64-4.01-2.47-7.4-2.47-1.89,0-3.34,.1-4.33,.3v58.72c-2.59,.5-4.93,.82-7.02,.97-2.09,.15-3.94,.22-5.53,.22-1.69,0-3.54-.07-5.53-.22-1.99-.15-4.28-.47-6.87-.97v-76.8Z"/><path d="M611.64,175.1c2.19-.5,4.36-.85,6.5-1.05,2.14-.2,4.21-.3,6.2-.3s3.93,.1,6.13,.3c2.19,.2,4.33,.55,6.43,1.05v76.95c-2.59,.5-4.93,.82-7.02,.97-2.09,.15-3.94,.22-5.53,.22-1.69,0-3.59-.07-5.68-.22-2.09-.15-4.43-.47-7.02-.97v-76.95Zm27.64,36.91l17.63-36.91c1.79-.4,3.98-.7,6.57-.9,2.59-.2,4.88-.3,6.87-.3,2.59,0,5.2,.1,7.84,.3,2.64,.2,4.76,.5,6.35,.9l-18.53,35.86,20.62,41.09c-1.79,.4-4.03,.7-6.72,.9-2.69,.2-5.03,.3-7.02,.3-2.59,0-5.16-.1-7.69-.3-2.54-.2-4.56-.5-6.05-.9l-19.87-40.04Z"/><path d="M711,221.26c-5.28-1.49-9.66-4.03-13.15-7.62-3.49-3.59-5.23-8.47-5.23-14.64,0-3.88,.8-7.42,2.39-10.61,1.59-3.19,3.83-5.9,6.72-8.14,2.89-2.24,6.3-3.96,10.23-5.16,3.93-1.2,8.29-1.79,13.07-1.79,3.78,0,7.92,.4,12.4,1.2,4.48,.8,8.91,1.94,13.3,3.44-.2,3.19-.85,6.6-1.94,10.23-1.1,3.64-2.34,6.85-3.74,9.64-2.69-1.1-5.93-2.09-9.71-2.99-3.79-.9-7.27-1.34-10.46-1.34-4.68,0-7.02,1.3-7.02,3.88,0,1.1,.55,1.94,1.64,2.54,1.09,.6,2.34,1.1,3.74,1.49l9.71,2.54c2.99,.8,5.7,1.77,8.14,2.91,2.44,1.15,4.53,2.62,6.28,4.41,1.74,1.79,3.11,3.99,4.11,6.57,.99,2.59,1.49,5.73,1.49,9.41s-.77,7.32-2.32,10.61c-1.55,3.29-3.84,6.13-6.87,8.52-3.04,2.39-6.78,4.28-11.21,5.68-4.43,1.39-9.54,2.09-15.32,2.09-4.78,0-9.21-.35-13.3-1.05-4.09-.7-8.42-1.89-13-3.59,.5-6.77,2.34-13.65,5.53-20.62,3.19,1.49,6.52,2.61,10.01,3.36,3.49,.75,6.97,1.12,10.46,1.12,1.2,0,2.44-.05,3.74-.15,1.29-.1,2.44-.32,3.44-.67,.99-.35,1.82-.82,2.47-1.42,.65-.6,.97-1.39,.97-2.39,0-1.29-.65-2.26-1.94-2.91-1.3-.65-2.79-1.22-4.48-1.72l-10.16-2.84Z"/></g><g><path class="cls-1" d="M68.83,271.27c-10.77,0-20.56-1.85-29.11-5.49-8.76-3.74-16.26-9.07-22.29-15.86-5.91-6.66-10.39-14.61-13.31-23.64-2.74-8.45-4.13-17.68-4.13-27.43s1.46-19.13,4.34-27.69c3-8.94,7.47-16.86,13.28-23.54,6.01-6.9,13.47-12.34,22.17-16.15,8.55-3.74,18.17-5.63,28.59-5.63,5.68,0,11.18,.43,16.37,1.27,5.5,.9,11.53,2.64,17.94,5.17,6.88,2.72,11.26,9.53,10.89,16.91-.28,5.66-1.33,11.23-3.13,16.56-1.52,4.5-3.15,8.56-4.85,12.07-3.82,7.91-12.97,11.7-21.26,8.8-1.76-.62-3.37-1.15-4.78-1.57-1.09-.33-2.13-.6-3.07-.78-.94-.19-1.88-.33-2.81-.42-.92-.09-1.95-.14-3.06-.14-3.9,0-4.82,1.12-5.36,1.79-.65,.79-2.76,4.09-2.76,13.35s1.99,11.92,2.6,12.64c1.21,1.45,4.32,1.75,6.71,1.75,1.98,0,3.82-.18,5.48-.53,1.47-.31,4.12-.98,8.35-2.43,8.4-2.87,17.6,1.09,21.3,9.15,3.96,8.63,6.64,17.66,7.97,26.83,1.16,8.01-3.4,15.76-10.97,18.63-3.36,1.27-6.57,2.34-9.55,3.18-3.13,.88-6.23,1.55-9.21,2.01-2.79,.42-5.56,.73-8.26,.91-2.61,.17-5.34,.26-8.1,.26Z"/><path class="cls-1" d="M141.29,271.42c-9.29,0-17.6-1.4-24.71-4.16-7.61-2.95-14.01-7.24-19.05-12.74-4.93-5.38-8.6-11.8-10.9-19.08-2.07-6.53-3.12-13.67-3.12-21.2s1.08-14.59,3.21-21.25c2.3-7.19,5.85-13.6,10.56-19.04,4.83-5.59,10.87-10.03,17.95-13.2,7.01-3.14,15.01-4.72,23.8-4.72,7.63,0,14.7,1.39,21,4.12,6.34,2.75,11.85,6.64,16.37,11.54,4.48,4.87,7.93,10.71,10.26,17.37,2.18,6.26,3.28,13.02,3.28,20.11,0,3.33-.16,6.43-.49,9.23-.27,2.28-.51,4.21-.73,5.75-.56,3.93-2.42,7.4-5.1,9.99,1.28,4.7,2,9.61,2.13,14.62,.19,7.39-4.34,14.08-11.27,16.65-10.75,3.99-21.92,6.01-33.2,6.01Z"/><path class="cls-1" d="M238.41,269.62h-53.49c-4.59,0-8.99-1.83-12.23-5.07-3.24-3.25-5.06-7.65-5.05-12.24l.15-77.25c.02-8.06,5.6-15.03,13.45-16.82,2.9-.66,5.83-1.13,8.72-1.4,2.69-.25,5.31-.37,7.81-.37s4.97,.12,7.68,.37c3.02,.28,6,.76,8.86,1.44,7.8,1.86,13.31,8.84,13.29,16.86l-.1,38.85h10.91c7.93,0,14.85,5.4,16.77,13.1,.71,2.86,1.19,5.62,1.42,8.19,.19,2.2,.29,4.37,.29,6.45s-.1,4.25-.29,6.48c-.23,2.65-.71,5.44-1.42,8.32-1.92,7.7-8.83,13.09-16.77,13.09Z"/><path class="cls-1" d="M303.7,269.62h-53.49c-4.59,0-8.99-1.83-12.23-5.07-3.24-3.25-5.06-7.65-5.05-12.24l.15-77.25c.02-8.06,5.6-15.03,13.45-16.82,2.9-.66,5.83-1.13,8.72-1.4,2.69-.25,5.31-.37,7.81-.37s4.97,.12,7.68,.37c3.02,.28,6,.76,8.86,1.44,7.8,1.86,13.31,8.84,13.29,16.86l-.1,38.85h10.91c7.93,0,14.85,5.4,16.77,13.1,.71,2.86,1.19,5.62,1.42,8.19,.19,2.2,.29,4.37,.29,6.45s-.1,4.25-.29,6.48c-.23,2.65-.71,5.44-1.42,8.32-1.92,7.7-8.83,13.09-16.77,13.09Z"/><path class="cls-1" d="M401.42,270.52c-3.53,0-7.03-.23-10.4-.67-3.4-.45-5.37-.77-6.82-1.09-4.58-1.03-8.46-3.84-10.87-7.69-2.41,3.85-6.29,6.66-10.87,7.68-1.36,.31-3.26,.62-6.33,1.06-3.26,.46-6.72,.7-10.3,.7s-6.85-.2-9.8-.61c-2.57-.35-4.72-.7-6.59-1.07-6.62-1.33-11.87-6.39-13.43-12.96l-25.25-106.53c-1.1-4.62-.24-9.49,2.37-13.47,2.61-3.97,6.74-6.7,11.41-7.53,3.33-.59,6.61-1.02,9.77-1.26,3.07-.24,5.76-.35,8.21-.35,2.3,0,4.71,.09,7.16,.27,2.73,.2,5.66,.6,8.94,1.23,4.19,.8,7.82,3.09,10.34,6.3,2.61-3.32,6.41-5.65,10.75-6.38,2.06-.34,4.37-.66,6.87-.95,5.43-.61,11.02-.68,16.84,0,2.59,.31,4.79,.65,6.74,1.04,4.33,.87,8.07,3.33,10.58,6.77,2.53-3.47,6.31-5.95,10.71-6.8,3.23-.62,5.97-1.02,8.4-1.22,4.53-.38,9.28-.37,14.42-.02,2.84,.19,5.89,.59,9.33,1.2,4.69,.84,8.83,3.57,11.43,7.56,2.61,3.99,3.45,8.87,2.34,13.5l-25.7,106.68c-1.58,6.54-6.81,11.58-13.41,12.9-1.91,.38-4.18,.74-6.95,1.09-3.06,.39-6.38,.59-9.89,.59Zm-.4-39.04l.48,2.11,.5-2.07c-.33,0-.66-.02-.98-.05Zm-55.46-.84l.26,1.09,.25-1.04c-.17-.02-.34-.04-.51-.06Zm28.71-57.87c.34,0,.67,.03,1.01,.06l-.52-2.33c-.16,.75-.32,1.51-.48,2.27Z"/><path class="cls-1" d="M542.02,270.67c-2.12,0-4.41-.09-6.82-.27-2.66-.2-5.56-.6-8.84-1.23-8.14-1.56-14.02-8.68-14.02-16.97v-76.8c0-8.7,6.47-16.04,15.09-17.14,4.91-.63,10.09-1.16,15.39-1.58,5.48-.43,10.74-.65,15.64-.65,16.05,0,28.31,3.36,37.5,10.27,10.43,7.85,15.94,19.21,15.94,32.86,0,4.77-.6,9.18-1.79,13.09-1.09,3.56-2.48,6.79-4.16,9.61l11.6,22.19c2.52,4.82,2.62,10.55,.28,15.47-2.35,4.91-6.87,8.43-12.21,9.49-2.62,.52-5.52,.92-8.6,1.17-2.92,.24-5.78,.36-8.52,.36-3.21,0-6.37-.12-9.39-.35-3.53-.27-6.48-.7-9.05-1.3-2.04-.48-3.95-1.32-5.65-2.46-1.93,1.33-4.15,2.29-6.57,2.75-3.3,.63-6.26,1.04-9.05,1.24-2.52,.18-4.73,.27-6.76,.27Z"/><path class="cls-1" d="M672.9,270.52c-3.02,0-6.06-.12-9.04-.35-3.64-.29-6.62-.75-9.15-1.42-2.49-.66-4.77-1.86-6.69-3.48-2.2,1.86-4.89,3.18-7.88,3.75-3.3,.63-6.26,1.04-9.05,1.24-2.53,.18-4.74,.27-6.76,.27s-4.41-.09-6.9-.27c-2.8-.2-5.76-.61-9.05-1.24-8.14-1.56-14.02-8.68-14.02-16.97v-76.95c0-8.07,5.58-15.07,13.45-16.85,2.9-.66,5.83-1.13,8.72-1.4,2.69-.25,5.31-.37,7.81-.37s4.97,.12,7.68,.37c3.02,.28,6,.76,8.86,1.44,2.22,.53,4.24,1.47,6.02,2.73,1.86-1.32,3.99-2.28,6.28-2.79,2.61-.58,5.55-.99,8.97-1.25,3.08-.24,5.77-.35,8.21-.35,2.99,0,6.07,.12,9.14,.35,3.65,.28,6.67,.72,9.23,1.36,5.13,1.28,9.39,4.83,11.57,9.64,2.18,4.82,2.04,10.36-.39,15.06l-14.49,28.04,16.67,33.22c2.39,4.76,2.45,10.36,.16,15.17-2.29,4.81-6.67,8.3-11.87,9.45-2.62,.58-5.62,.99-9.17,1.26-3.17,.23-5.88,.35-8.31,.35Z"/><path class="cls-1" d="M717.28,271.42c-5.72,0-11.17-.43-16.2-1.29-5.13-.88-10.55-2.36-16.09-4.41-7.22-2.67-11.8-9.8-11.24-17.47,.65-8.8,3.02-17.73,7.05-26.54,.18-.39,.37-.76,.57-1.13-3.25-4.98-6.02-12.02-6.02-21.56,0-6.57,1.42-12.74,4.22-18.34,2.75-5.5,6.65-10.24,11.59-14.07,4.54-3.52,9.86-6.23,15.8-8.03,5.54-1.68,11.63-2.54,18.1-2.54,4.77,0,9.96,.49,15.42,1.46,5.34,.95,10.67,2.33,15.85,4.09,7.38,2.52,12.16,9.66,11.67,17.44-.28,4.5-1.17,9.25-2.64,14.13-.95,3.14-2.01,6.09-3.17,8.81,2.25,2.86,4.07,6.1,5.44,9.66,1.76,4.58,2.65,9.83,2.65,15.62,0,6.32-1.33,12.36-3.96,17.95-2.7,5.73-6.67,10.69-11.83,14.75-4.68,3.68-10.3,6.57-16.71,8.58-6.1,1.92-12.99,2.89-20.5,2.89Z"/><path class="cls-1" d="M478.07,271.42c-8.43,0-16.15-1.36-22.94-4.05-7.22-2.86-13.42-7.08-18.42-12.55-4.86-5.31-8.56-11.67-10.97-18.9-2.22-6.67-3.35-14.02-3.35-21.83s1.12-15.28,3.32-22.03c2.39-7.33,6.07-13.76,10.92-19.14,4.98-5.52,11.15-9.8,18.35-12.72,6.83-2.78,14.6-4.18,23.09-4.18s16.4,1.41,23.24,4.18c7.19,2.92,13.37,7.2,18.35,12.72,4.85,5.38,8.53,11.82,10.92,19.14,2.2,6.75,3.32,14.16,3.32,22.03s-1.13,15.15-3.35,21.83c-2.41,7.22-6.1,13.58-10.97,18.9-5.01,5.47-11.2,9.69-18.42,12.54-6.8,2.69-14.57,4.05-23.09,4.05Zm5.08-51.75h0Z"/></g><path class="cls-1" d="M451.44,323.89c-2.54,0-5.36-.27-8.63-.84-5.99-1.04-10.37-6.24-10.37-12.32v-52.12c0-6.41,4.85-11.79,11.23-12.44,2.36-.24,4.53-.47,6.53-.69,2.45-.27,5.05-.4,7.73-.4,3.45,0,6.94,.33,10.37,.99,4.13,.79,7.92,2.22,11.28,4.25,3.85,2.33,7,5.51,9.36,9.45,2.49,4.15,3.75,9.11,3.75,14.75,0,2.96-.37,5.76-1.11,8.31-.7,2.44-1.66,4.69-2.84,6.7-.12,.21-.24,.41-.37,.61l7.56,14.94c1.8,3.55,1.8,7.74,0,11.29-1.8,3.55-5.18,6.03-9.1,6.69-1.55,.26-3.23,.45-5.01,.58-1.67,.12-3.23,.18-4.64,.18-1.3,0-2.72-.06-4.34-.18-1.81-.14-3.42-.35-4.9-.64-1.38-.28-2.68-.78-3.87-1.47-1.27,.75-2.7,1.28-4.23,1.54-3.31,.56-6.07,.83-8.44,.83Z"/><g><path d="M91.24,226.64c3.29,7.17,5.48,14.54,6.57,22.11-2.89,1.1-5.58,1.99-8.07,2.69-2.49,.7-4.88,1.22-7.17,1.57-2.29,.35-4.56,.6-6.8,.75-2.24,.15-4.56,.22-6.95,.22-8.47,0-15.91-1.37-22.34-4.11-6.43-2.74-11.8-6.55-16.14-11.43-4.33-4.88-7.6-10.71-9.79-17.48-2.19-6.77-3.29-14.14-3.29-22.11s1.14-15.36,3.44-22.19c2.29-6.82,5.6-12.72,9.94-17.7,4.33-4.98,9.69-8.86,16.06-11.65,6.37-2.79,13.6-4.18,21.66-4.18,4.78,0,9.31,.35,13.6,1.05,4.28,.7,9.06,2.09,14.34,4.18-.2,4.09-.95,8.05-2.24,11.88-1.3,3.84-2.64,7.2-4.03,10.09-1.99-.7-3.81-1.29-5.45-1.79-1.64-.5-3.21-.9-4.71-1.2-1.49-.3-2.99-.52-4.48-.67s-3.09-.22-4.78-.22c-8.07,0-14.32,2.72-18.75,8.14-4.43,5.43-6.65,13.52-6.65,24.28,0,21.12,8.86,31.68,26.6,31.68,3.19,0,6.2-.3,9.04-.9,2.84-.6,6.3-1.59,10.38-2.99Z"/><path d="M126.2,221.71c1.1,4.09,3.01,6.97,5.75,8.67,2.74,1.69,6.35,2.54,10.83,2.54,2.89,0,6.13-.35,9.71-1.05,3.59-.7,7.12-1.74,10.61-3.14,1.39,2.59,2.61,5.68,3.66,9.26,1.05,3.59,1.62,7.32,1.72,11.21-8.87,3.29-17.93,4.93-27.19,4.93-7.17,0-13.32-1-18.45-2.99-5.13-1.99-9.32-4.76-12.55-8.29-3.24-3.53-5.63-7.74-7.17-12.63-1.55-4.88-2.32-10.21-2.32-15.99s.8-11.01,2.39-15.99c1.59-4.98,3.98-9.31,7.17-13,3.19-3.68,7.17-6.6,11.95-8.74,4.78-2.14,10.36-3.21,16.73-3.21,5.28,0,9.99,.9,14.12,2.69,4.13,1.79,7.64,4.26,10.53,7.4,2.89,3.14,5.1,6.92,6.65,11.36,1.54,4.43,2.32,9.24,2.32,14.42,0,2.69-.13,5.11-.37,7.25-.25,2.14-.47,3.91-.67,5.3h-45.42Zm23.61-17.18c-.2-3.49-1.27-6.4-3.21-8.74-1.94-2.34-4.76-3.51-8.44-3.51-3.19,0-5.93,1-8.22,2.99-2.29,1.99-3.64,5.08-4.03,9.26h23.91Z"/><path d="M185.07,175.1c2.19-.5,4.36-.85,6.5-1.05,2.14-.2,4.21-.3,6.2-.3,1.89,0,3.93,.1,6.13,.3,2.19,.2,4.33,.55,6.43,1.05l-.15,56.18h28.24c.5,1.99,.82,3.84,.97,5.53,.15,1.69,.22,3.34,.22,4.93s-.07,3.26-.22,5.01c-.15,1.74-.47,3.61-.97,5.6h-53.49l.15-77.25Z"/><path d="M250.36,175.1c2.19-.5,4.36-.85,6.5-1.05,2.14-.2,4.21-.3,6.2-.3,1.89,0,3.93,.1,6.13,.3,2.19,.2,4.33,.55,6.43,1.05l-.15,56.18h28.24c.5,1.99,.82,3.84,.97,5.53,.15,1.69,.22,3.34,.22,4.93s-.07,3.26-.22,5.01c-.15,1.74-.47,3.61-.97,5.6h-53.49l.15-77.25Z"/><path d="M307.59,145.36c2.79-.5,5.48-.85,8.07-1.05,2.59-.2,4.88-.3,6.87-.3,1.89,0,3.86,.07,5.9,.22,2.04,.15,4.36,.47,6.95,.97l12.4,68.28c2.49-10.96,4.98-22.39,7.47-34.29,2.49-11.9,4.93-23.23,7.32-33.99,1.79-.3,3.78-.57,5.98-.82,2.19-.25,4.43-.37,6.72-.37,1.99,0,4.03,.13,6.13,.37,2.09,.25,3.88,.52,5.38,.82l15.54,69.03,12.4-69.03c2.59-.5,4.78-.82,6.57-.97s3.64-.22,5.53-.22c1.99,0,4.08,.07,6.28,.22,2.19,.15,4.68,.47,7.47,.97l-25.7,106.68c-1.49,.3-3.41,.6-5.75,.9-2.34,.3-4.91,.45-7.69,.45s-5.51-.17-8.14-.52c-2.64-.35-4.41-.62-5.3-.82l-14.19-61.86-15.09,61.86c-.9,.2-2.57,.47-5.01,.82-2.44,.35-5.06,.52-7.84,.52s-5.28-.15-7.47-.45c-2.19-.3-4.03-.6-5.53-.9l-25.25-106.53Z"/><path d="M478.07,254.14c-6.27,0-11.8-.95-16.58-2.84-4.78-1.89-8.79-4.61-12.03-8.14-3.24-3.53-5.68-7.77-7.32-12.7-1.64-4.93-2.47-10.38-2.47-16.36s.82-11.63,2.47-16.66c1.64-5.03,4.08-9.34,7.32-12.92,3.24-3.59,7.25-6.35,12.03-8.29,4.78-1.94,10.31-2.91,16.58-2.91s11.95,.97,16.73,2.91c4.78,1.94,8.79,4.71,12.03,8.29,3.24,3.59,5.68,7.9,7.32,12.92,1.64,5.03,2.47,10.59,2.47,16.66s-.82,11.43-2.47,16.36c-1.64,4.93-4.09,9.17-7.32,12.7-3.24,3.54-7.25,6.25-12.03,8.14-4.78,1.89-10.36,2.84-16.73,2.84Zm0-20.47c4.38,0,7.64-1.69,9.79-5.08,2.14-3.38,3.21-8.22,3.21-14.49s-1.07-11.25-3.21-14.64c-2.14-3.39-5.4-5.08-9.79-5.08s-7.62,1.69-9.71,5.08c-2.09,3.39-3.14,8.27-3.14,14.64s1.05,11.11,3.14,14.49c2.09,3.39,5.33,5.08,9.71,5.08Z"/><path d="M529.62,175.39c4.68-.6,9.54-1.09,14.57-1.49,5.03-.4,9.79-.6,14.27-.6,12.05,0,21.09,2.27,27.12,6.8,6.03,4.53,9.04,10.88,9.04,19.05,0,3.09-.35,5.78-1.05,8.07-.7,2.29-1.55,4.26-2.54,5.9-1,1.64-2.04,2.96-3.14,3.96-1.1,1-1.99,1.79-2.69,2.39l17.03,32.57c-1.99,.4-4.21,.7-6.65,.9-2.44,.2-4.81,.3-7.1,.3-2.79,0-5.48-.1-8.07-.3-2.59-.2-4.73-.5-6.42-.9l-16.59-35.26,2.09-1.2c3.49-1.99,5.88-4.11,7.17-6.35,1.29-2.24,1.94-4.66,1.94-7.25s-.77-4.71-2.32-6.35c-1.55-1.64-4.01-2.47-7.4-2.47-1.89,0-3.34,.1-4.33,.3v58.72c-2.59,.5-4.93,.82-7.02,.97-2.09,.15-3.94,.22-5.53,.22-1.69,0-3.54-.07-5.53-.22-1.99-.15-4.28-.47-6.87-.97v-76.8Z"/><path d="M611.64,175.1c2.19-.5,4.36-.85,6.5-1.05,2.14-.2,4.21-.3,6.2-.3s3.93,.1,6.13,.3c2.19,.2,4.33,.55,6.43,1.05v76.95c-2.59,.5-4.93,.82-7.02,.97-2.09,.15-3.94,.22-5.53,.22-1.69,0-3.59-.07-5.68-.22-2.09-.15-4.43-.47-7.02-.97v-76.95Zm27.64,36.91l17.63-36.91c1.79-.4,3.98-.7,6.57-.9,2.59-.2,4.88-.3,6.87-.3,2.59,0,5.2,.1,7.84,.3,2.64,.2,4.76,.5,6.35,.9l-18.53,35.86,20.62,41.09c-1.79,.4-4.03,.7-6.72,.9-2.69,.2-5.03,.3-7.02,.3-2.59,0-5.16-.1-7.69-.3-2.54-.2-4.56-.5-6.05-.9l-19.87-40.04Z"/><path d="M711,221.26c-5.28-1.49-9.66-4.03-13.15-7.62-3.49-3.59-5.23-8.47-5.23-14.64,0-3.88,.8-7.42,2.39-10.61,1.59-3.19,3.83-5.9,6.72-8.14,2.89-2.24,6.3-3.96,10.23-5.16,3.93-1.2,8.29-1.79,13.07-1.79,3.78,0,7.92,.4,12.4,1.2,4.48,.8,8.91,1.94,13.3,3.44-.2,3.19-.85,6.6-1.94,10.23-1.1,3.64-2.34,6.85-3.74,9.64-2.69-1.1-5.93-2.09-9.71-2.99-3.79-.9-7.27-1.34-10.46-1.34-4.68,0-7.02,1.3-7.02,3.88,0,1.1,.55,1.94,1.64,2.54,1.09,.6,2.34,1.1,3.74,1.49l9.71,2.54c2.99,.8,5.7,1.77,8.14,2.91,2.44,1.15,4.53,2.62,6.28,4.41,1.74,1.79,3.11,3.99,4.11,6.57,.99,2.59,1.49,5.73,1.49,9.41s-.77,7.32-2.32,10.61c-1.55,3.29-3.84,6.13-6.87,8.52-3.04,2.39-6.78,4.28-11.21,5.68-4.43,1.39-9.54,2.09-15.32,2.09-4.78,0-9.21-.35-13.3-1.05-4.09-.7-8.42-1.89-13-3.59,.5-6.77,2.34-13.65,5.53-20.62,3.19,1.49,6.52,2.61,10.01,3.36,3.49,.75,6.97,1.12,10.46,1.12,1.2,0,2.44-.05,3.74-.15,1.29-.1,2.44-.32,3.44-.67,.99-.35,1.82-.82,2.47-1.42,.65-.6,.97-1.39,.97-2.39,0-1.29-.65-2.26-1.94-2.91-1.3-.65-2.79-1.22-4.48-1.72l-10.16-2.84Z"/></g><path class="cls-1" d="M505.76,324.32c-5.04,0-9.59-.78-13.54-2.31-4.3-1.67-7.95-4.12-10.83-7.27-2.81-3.06-4.9-6.71-6.2-10.84-1.14-3.59-1.71-7.48-1.71-11.58s.59-7.97,1.76-11.62c1.29-4.03,3.29-7.64,5.95-10.72,2.75-3.18,6.18-5.7,10.18-7.5,3.95-1.77,8.42-2.66,13.29-2.66,4.29,0,8.28,.79,11.87,2.35,3.62,1.57,6.77,3.8,9.37,6.61,2.57,2.79,4.54,6.12,5.86,9.9,1.21,3.49,1.83,7.24,1.83,11.16,0,1.78-.09,3.46-.27,4.98-.14,1.18-.26,2.15-.37,2.91-.28,1.98-1.02,3.8-2.09,5.35,.4,1.96,.63,3.96,.68,6,.14,5.34-3.14,10.19-8.15,12.04-5.71,2.12-11.64,3.19-17.63,3.19Z"/><path class="cls-1" d="M533.06,323.96c-1.15,0-2.37-.05-3.63-.15-1.43-.11-2.98-.33-4.72-.66-5.89-1.13-10.14-6.28-10.14-12.28v-37.52c0-6.18,4.51-11.43,10.62-12.36,2.55-.39,5.2-.68,7.87-.88,2.66-.19,5.26-.29,7.73-.29,3.01,0,6.02,.29,8.94,.85,3.7,.72,7.12,2.07,10.16,4.02,3.48,2.24,6.29,5.29,8.35,9.07,2.05,3.77,3.09,8.3,3.09,13.46,0,4.72-.92,8.96-2.74,12.6-1.82,3.64-4.32,6.67-7.44,9.01-2.87,2.15-6.11,3.7-9.66,4.62-.05,.01-.1,.02-.15,.04-1.03,4.83-4.86,8.7-9.87,9.66-1.76,.34-3.34,.56-4.84,.67-1.29,.09-2.5,.14-3.58,.14Zm6.51-34.55c.07,0,.14,0,.2,0l.17-.85-.37-3.04v3.88Z"/><path class="cls-1" d="M579.34,324.25c-3.41,0-6.65-.33-9.64-.98-3.67-.8-6.96-2.18-9.79-4.09-3.27-2.22-5.86-5.16-7.68-8.75-1.74-3.43-2.63-7.41-2.63-11.82,0-4.85,1.21-9.15,3.58-12.77,.18-.27,.35-.53,.54-.79-.33-.88-.6-1.77-.82-2.68-.3-1.25-.52-2.58-.65-3.92-.11-1.16-.17-2.4-.17-3.79,0-5.38,3.45-10.16,8.55-11.86,2.93-.98,5.9-1.72,8.84-2.22,3.04-.51,5.76-.76,8.32-.76,3.73,0,7.23,.48,10.43,1.43,3.78,1.13,7.12,2.95,9.92,5.41,2.93,2.58,5.17,5.82,6.68,9.64,1.36,3.44,2.04,7.35,2.04,11.64v21.39c0,5.56-3.68,10.46-9.02,12.01-2.19,.64-4.71,1.24-7.7,1.85-3.44,.7-7.07,1.05-10.82,1.05Z"/><path class="cls-1" d="M608.32,323.96c-1.23,0-2.52-.07-3.95-.2-1.31-.13-2.7-.31-4.15-.54-6.06-.97-10.53-6.2-10.53-12.34v-37.67c0-5.84,4.04-10.9,9.73-12.19,1.59-.36,3.2-.62,4.79-.77,2.82-.26,5.34-.27,8.31,0,1.67,.15,3.32,.42,4.91,.8,5.63,1.34,9.61,6.37,9.61,12.16v37.67c0,6.17-4.5,11.42-10.6,12.36-1.48,.23-2.87,.4-4.13,.53-1.45,.14-2.75,.2-3.97,.2Z"/><path class="cls-1" d="M628.76,323.96c-1.14,0-2.36-.05-3.64-.14-1.46-.11-3.03-.33-4.78-.66-5.89-1.13-10.14-6.28-10.14-12.28v-37.52c0-6.29,4.68-11.6,10.92-12.4,2.47-.31,5.06-.58,7.71-.79,2.8-.22,5.47-.33,7.96-.33,8.75,0,15.54,1.91,20.76,5.83,6.07,4.57,9.41,11.42,9.41,19.3,0,2.73-.35,5.28-1.05,7.57-.38,1.24-.82,2.42-1.34,3.52l4.69,8.96c1.82,3.49,1.9,7.63,.2,11.19-1.7,3.55-4.97,6.1-8.83,6.87-1.44,.29-3.01,.5-4.67,.64-3.33,.27-6.42,.23-9.38,0-1.93-.15-3.58-.39-5.05-.73-.62-.15-1.22-.33-1.8-.57-.79,.33-1.61,.58-2.48,.75-1.77,.34-3.37,.56-4.89,.67-1.31,.09-2.52,.14-3.59,.14Z"/><path class="cls-1" d="M665.05,323.71c-.97,0-1.96-.05-2.95-.14-.91-.09-1.87-.22-2.84-.38-5.2-.9-9.27-4.97-10.18-10.17-.17-.97-.3-1.93-.39-2.85-.09-.97-.14-1.97-.14-2.95s.05-1.98,.14-2.96c.08-.9,.21-1.86,.38-2.83,.94-5.39,5.27-9.55,10.7-10.25,.8-.1,1.57-.19,2.3-.26,2.07-.19,3.92-.19,5.91,0,.77,.08,1.54,.16,2.34,.26,5.43,.71,9.77,4.87,10.7,10.26,.17,.97,.3,1.92,.38,2.83,.09,1,.14,1.99,.14,2.95s-.05,1.95-.14,2.94c-.09,.93-.22,1.88-.39,2.85-.9,5.21-4.98,9.28-10.18,10.18-.97,.17-1.92,.3-2.83,.38-.99,.09-1.98,.14-2.95,.14Z"/><path class="cls-1" d="M684.06,323.96c-3.38,0-6.53-.56-9.38-1.66-3.15-1.22-5.88-3.04-8.12-5.42-2.19-2.32-3.84-5.07-4.9-8.17-.93-2.72-1.41-5.7-1.41-8.85s.47-6.03,1.4-8.76c1.05-3.1,2.68-5.84,4.82-8.16,2.18-2.34,4.81-4.16,7.84-5.42,2.9-1.21,6.11-1.82,9.54-1.82,.83,0,1.62,.02,2.37,.06,1.01,.05,2,.16,2.96,.32,1.1,.18,2.22,.44,3.33,.78,.79,.24,1.63,.53,2.56,.88,4.63,1.74,7.8,6.04,8.09,10.97,.13,2.19-.07,4.39-.58,6.54-.36,1.51-.88,3-1.54,4.45,.58,1.17,1.06,2.4,1.44,3.69,.63,2.12,.95,4.43,.95,6.87,0,5.14-3.15,9.76-7.94,11.64-2.25,.88-4.45,1.47-6.54,1.74-1.62,.21-3.27,.32-4.9,.32Z"/><path class="cls-1" d="M725.67,291.26c-1.02-3.11-2.6-5.88-4.71-8.22-2.2-2.44-4.91-4.32-8.03-5.58-2.87-1.17-6.08-1.76-9.53-1.76s-6.61,.59-9.47,1.76c-3.13,1.27-5.84,3.15-8.04,5.59-2.11,2.33-3.69,5.1-4.71,8.21-.88,2.7-1.33,5.62-1.33,8.68s.45,5.97,1.35,8.66c1.03,3.09,2.63,5.83,4.74,8.14,2.22,2.42,4.93,4.28,8.09,5.53,2.84,1.12,5.99,1.69,9.37,1.69s6.57-.57,9.42-1.69c3.14-1.25,5.86-3.1,8.08-5.53,2.12-2.31,3.71-5.05,4.74-8.14,.9-2.69,1.35-5.6,1.35-8.66s-.45-5.98-1.33-8.68Z"/><path class="cls-1" d="M746.24,323.75c-.79,0-1.62-.03-2.52-.1-1.1-.08-2.27-.24-3.5-.47-.03,0-.06-.01-.09-.02-.03,0-.06,.01-.09,.02-1.24,.24-2.38,.39-3.49,.47-1.85,.13-3.23,.13-5.01,0-1.1-.08-2.27-.24-3.5-.47l-.09-.02s-.06,.01-.09,.02c-1.24,.24-2.38,.39-3.49,.47-1.85,.13-3.23,.13-5,0-1.09-.08-2.27-.24-3.5-.47-5.88-1.13-10.14-6.28-10.14-12.27v-21.11c0-5.34,3.39-10.09,8.45-11.83,1.41-.48,2.99-.93,4.81-1.36,2.36-.55,5.04-.82,8.18-.82,1.83,0,3.68,.15,5.48,.44,.42,.07,.84,.15,1.25,.24,3.54-.85,7.57-.89,11.64-.16,3.03,.55,5.81,1.72,8.28,3.49,2.7,1.93,4.84,4.54,6.37,7.74,1.45,3.03,2.15,6.46,2.15,10.51v12.86c0,5.99-4.25,11.14-10.14,12.27-1.24,.24-2.38,.39-3.49,.47-.91,.06-1.72,.1-2.48,.1Z"/><g><path d="M444.95,258.61c2.38-.24,4.59-.47,6.61-.69,2.02-.22,4.15-.33,6.39-.33,2.68,0,5.35,.26,8.03,.77,2.68,.51,5.06,1.4,7.15,2.67,2.09,1.27,3.8,2.99,5.11,5.18s1.97,4.96,1.97,8.32c0,1.8-.21,3.42-.62,4.85-.41,1.44-.95,2.71-1.61,3.83-.66,1.12-1.39,2.09-2.19,2.92-.8,.83-1.59,1.53-2.37,2.12l11.39,22.48c-1.17,.19-2.45,.34-3.83,.44-1.39,.1-2.64,.15-3.76,.15-.97,0-2.11-.05-3.39-.15-1.29-.1-2.42-.24-3.39-.44l-10.37-23.87,.66-.37c.58-.29,1.23-.78,1.93-1.46,.71-.68,1.36-1.5,1.97-2.45,.61-.95,1.12-2.01,1.53-3.18,.41-1.17,.62-2.38,.62-3.65,0-2.43-.68-4.21-2.04-5.33-1.36-1.12-3.04-1.68-5.04-1.68-.49,0-.9,.03-1.24,.07-.34,.05-.56,.1-.66,.15v41.76c-2.58,.44-4.7,.66-6.35,.66-1.8,0-3.97-.22-6.5-.66v-52.12Z"/><path d="M498.38,295.98c.54,2,1.47,3.41,2.81,4.23,1.34,.83,3.1,1.24,5.29,1.24,1.41,0,2.99-.17,4.75-.51,1.75-.34,3.48-.85,5.18-1.53,.68,1.27,1.28,2.77,1.79,4.53,.51,1.75,.79,3.58,.84,5.47-4.33,1.61-8.76,2.41-13.29,2.41-3.5,0-6.51-.49-9.02-1.46-2.51-.97-4.55-2.32-6.13-4.05-1.58-1.73-2.75-3.78-3.5-6.17-.75-2.38-1.13-4.99-1.13-7.81s.39-5.38,1.17-7.81c.78-2.43,1.95-4.55,3.5-6.35,1.56-1.8,3.5-3.22,5.84-4.27,2.34-1.05,5.06-1.57,8.18-1.57,2.58,0,4.88,.44,6.9,1.31,2.02,.88,3.73,2.08,5.15,3.61,1.41,1.53,2.49,3.38,3.25,5.55,.75,2.17,1.13,4.51,1.13,7.04,0,1.31-.06,2.49-.18,3.54-.12,1.05-.23,1.91-.33,2.59h-22.19Zm11.53-8.4c-.1-1.7-.62-3.13-1.57-4.27-.95-1.14-2.32-1.71-4.12-1.71-1.56,0-2.9,.49-4.02,1.46-1.12,.97-1.78,2.48-1.97,4.53h11.68Z"/><path d="M527.07,273.35c2.24-.34,4.54-.6,6.9-.77,2.36-.17,4.64-.26,6.83-.26s4.43,.21,6.57,.62c2.14,.41,4.06,1.17,5.77,2.26,1.7,1.09,3.08,2.6,4.12,4.53,1.05,1.92,1.57,4.42,1.57,7.48,0,2.77-.47,5.11-1.42,7.01s-2.2,3.43-3.76,4.6c-1.56,1.17-3.32,2.01-5.29,2.52-1.97,.51-3.98,.77-6.02,.77-.83,0-1.53-.02-2.12-.07-.58-.05-.95-.1-1.1-.15v8.98c-1.27,.24-2.4,.4-3.39,.47-1,.07-1.89,.11-2.66,.11-.83,0-1.72-.04-2.66-.11-.95-.07-2.06-.23-3.32-.47v-37.52Zm12.04,19.34c.24,.05,.55,.09,.91,.11,.37,.03,.67,.04,.91,.04,1.7,0,3.1-.43,4.2-1.28,1.1-.85,1.64-2.3,1.64-4.34,0-1.75-.55-3.1-1.64-4.05-1.09-.95-2.45-1.42-4.05-1.42h-.84c-.37,0-.74,.03-1.13,.07v10.88Z"/><path d="M583.06,286.49c-.05-.88-.29-1.61-.73-2.19s-1-1.03-1.68-1.35c-.68-.32-1.44-.54-2.26-.66-.83-.12-1.68-.18-2.56-.18-1.17,0-2.53,.13-4.09,.4-1.56,.27-3.16,.69-4.82,1.28-.44-.83-.82-1.58-1.13-2.26-.32-.68-.56-1.37-.73-2.08-.17-.71-.29-1.44-.36-2.19-.07-.75-.11-1.62-.11-2.59,2.34-.78,4.66-1.36,6.97-1.75,2.31-.39,4.39-.58,6.24-.58,2.53,0,4.82,.3,6.86,.91s3.78,1.54,5.22,2.81c1.44,1.27,2.54,2.88,3.32,4.85,.78,1.97,1.17,4.32,1.17,7.04v21.39c-1.85,.54-4.09,1.07-6.72,1.61-2.63,.54-5.4,.8-8.32,.8-2.53,0-4.85-.23-6.97-.69-2.12-.46-3.93-1.2-5.44-2.23-1.51-1.02-2.69-2.37-3.54-4.05-.85-1.68-1.28-3.73-1.28-6.17s.51-4.36,1.53-5.91c1.02-1.56,2.34-2.8,3.94-3.72,1.61-.92,3.38-1.57,5.33-1.93,1.95-.37,3.84-.55,5.69-.55h4.45Zm0,7.74h-4.16c-1.7,0-3.14,.37-4.31,1.09-1.17,.73-1.75,1.75-1.75,3.07,0,.97,.22,1.74,.66,2.3,.44,.56,.99,.99,1.64,1.28,.66,.29,1.36,.49,2.12,.58,.75,.1,1.45,.15,2.08,.15,.44,0,1.07-.05,1.9-.15,.83-.1,1.44-.19,1.83-.29v-8.03Z"/><path d="M602.19,273.21c1.07-.24,2.13-.41,3.18-.51,1.05-.1,2.06-.15,3.03-.15,.92,0,1.92,.05,2.99,.15,1.07,.1,2.12,.27,3.14,.51v37.67c-1.27,.19-2.41,.34-3.43,.44-1.02,.1-1.95,.15-2.77,.15s-1.75-.05-2.77-.15c-1.02-.1-2.14-.24-3.36-.44v-37.67Z"/><path d="M622.7,273.35c2.29-.29,4.66-.54,7.12-.73,2.46-.19,4.78-.29,6.97-.29,5.89,0,10.3,1.11,13.25,3.32,2.94,2.22,4.42,5.32,4.42,9.31,0,1.51-.17,2.82-.51,3.94-.34,1.12-.75,2.08-1.24,2.88-.49,.8-1,1.45-1.53,1.93-.54,.49-.97,.88-1.31,1.17l8.32,15.91c-.97,.19-2.06,.34-3.25,.44-1.19,.1-2.35,.15-3.47,.15-1.36,0-2.68-.05-3.94-.15-1.27-.1-2.31-.24-3.14-.44l-8.1-17.23,1.02-.58c1.7-.97,2.87-2.01,3.5-3.1,.63-1.09,.95-2.27,.95-3.54s-.38-2.3-1.13-3.1c-.75-.8-1.96-1.21-3.61-1.21-.92,0-1.63,.05-2.12,.15v28.69c-1.27,.24-2.41,.4-3.43,.47s-1.92,.11-2.7,.11c-.83,0-1.73-.04-2.7-.11-.97-.07-2.09-.23-3.36-.47v-37.52Z"/><path d="M661.4,303.55c.66-.09,1.29-.16,1.89-.21,.6-.06,1.19-.09,1.76-.09s1.16,.03,1.76,.09c.6,.06,1.23,.13,1.89,.21,.11,.66,.2,1.29,.26,1.89,.06,.6,.09,1.19,.09,1.76s-.03,1.16-.09,1.76c-.06,.6-.14,1.23-.26,1.89-.66,.11-1.29,.2-1.89,.26s-1.19,.09-1.76,.09-1.16-.03-1.76-.09-1.23-.14-1.89-.26c-.11-.66-.2-1.29-.26-1.89-.06-.6-.09-1.19-.09-1.76s.03-1.16,.09-1.76c.06-.6,.14-1.23,.26-1.89Z"/><path d="M689.35,304.37c.49,.77,.87,1.64,1.16,2.6,.29,.96,.43,2.06,.43,3.29-1.32,.52-2.52,.85-3.61,.99-1.09,.14-2.18,.21-3.27,.21-1.83,0-3.46-.27-4.86-.82-1.41-.54-2.59-1.33-3.55-2.34s-1.68-2.24-2.17-3.66c-.49-1.42-.73-3.02-.73-4.79s.24-3.3,.73-4.73c.49-1.43,1.2-2.66,2.15-3.68,.95-1.02,2.11-1.81,3.48-2.39,1.38-.57,2.95-.86,4.73-.86,.6,0,1.18,.01,1.72,.04,.54,.03,1.08,.09,1.61,.17,.53,.09,1.08,.21,1.63,.39,.56,.17,1.18,.39,1.87,.64,.06,.97-.03,1.94-.26,2.9-.23,.96-.59,1.9-1.07,2.82-.49-.17-.92-.31-1.31-.41-.39-.1-.75-.18-1.1-.24-.34-.06-.68-.09-1.01-.11-.33-.01-.68-.02-1.05-.02-1.38,0-2.52,.41-3.42,1.23-.9,.82-1.35,2.23-1.35,4.24,0,1.06,.14,1.94,.41,2.64,.27,.7,.63,1.25,1.07,1.66,.44,.4,.96,.69,1.55,.86,.59,.17,1.21,.26,1.87,.26,.83,0,1.55-.07,2.17-.21,.62-.14,1.34-.37,2.17-.69Z"/><path d="M703.41,311.46c-1.81,0-3.4-.27-4.77-.82-1.38-.54-2.53-1.33-3.46-2.34-.93-1.02-1.63-2.24-2.11-3.66s-.71-2.99-.71-4.71,.24-3.35,.71-4.79c.47-1.45,1.18-2.69,2.11-3.72,.93-1.03,2.09-1.83,3.46-2.39,1.38-.56,2.97-.84,4.77-.84s3.44,.28,4.82,.84c1.38,.56,2.53,1.35,3.46,2.39,.93,1.03,1.63,2.27,2.11,3.72,.47,1.45,.71,3.05,.71,4.79s-.24,3.29-.71,4.71-1.18,2.64-2.11,3.66c-.93,1.02-2.09,1.8-3.46,2.34-1.38,.54-2.98,.82-4.82,.82Zm0-5.89c1.26,0,2.2-.49,2.82-1.46,.62-.97,.92-2.37,.92-4.17s-.31-3.24-.92-4.21c-.62-.97-1.56-1.46-2.82-1.46s-2.19,.49-2.79,1.46-.9,2.38-.9,4.21,.3,3.2,.9,4.17,1.53,1.46,2.79,1.46Z"/><path d="M718.24,289.79c1-.34,2.21-.68,3.61-1.01,1.4-.33,3.18-.5,5.33-.5,1.18,0,2.34,.09,3.48,.28,1.15,.19,2.21,.57,3.18,1.14,.75-.37,1.62-.7,2.62-.99,1-.29,2.14-.43,3.4-.43,1.12,0,2.27,.11,3.46,.32,1.19,.22,2.26,.67,3.23,1.35,.96,.69,1.75,1.68,2.36,2.97,.62,1.29,.92,3,.92,5.12v12.86c-.75,.14-1.42,.24-2.02,.28s-1.13,.06-1.59,.06c-.49,0-1.03-.02-1.63-.06s-1.28-.14-2.02-.28v-12.08c0-1.52-.26-2.61-.77-3.27-.52-.66-1.36-.99-2.54-.99-.4,0-.8,.04-1.18,.13-.39,.09-.65,.16-.8,.21,.26,1,.39,2.15,.39,3.44v12.56c-.75,.14-1.42,.24-2.02,.28-.6,.04-1.13,.06-1.59,.06-.49,0-1.03-.02-1.63-.06s-1.28-.14-2.02-.28v-12.08c0-1.52-.24-2.61-.73-3.27-.49-.66-1.32-.99-2.49-.99-.32,0-.65,.03-1.01,.09s-.58,.12-.67,.17v16.08c-.75,.14-1.42,.24-2.02,.28s-1.13,.06-1.59,.06c-.49,0-1.03-.02-1.63-.06-.6-.04-1.28-.14-2.02-.28v-21.11Z"/></g></g></g></g></svg>