<?xml version="1.0" encoding="UTF-8"?><svg id="Layer_1" xmlns="http://www.w3.org/2000/svg" viewBox="0 0 1920 1080"><defs><style>.cls-1{fill:#fff;}</style></defs><g><path class="cls-1" d="m1359.4,779c-6.1,0-12.89-.66-20.76-2.02-14.42-2.49-24.95-15-24.95-29.64v-125.43c0-15.43,11.68-28.36,27.03-29.93,5.67-.58,10.91-1.13,15.71-1.65,5.89-.64,12.16-.97,18.61-.97,8.29,0,16.69.8,24.96,2.38,9.93,1.89,19.06,5.33,27.14,10.22,9.26,5.6,16.84,13.25,22.53,22.74,5.99,9.99,9.03,21.93,9.03,35.5,0,7.12-.9,13.85-2.67,20-1.69,5.87-3.99,11.28-6.83,16.13-.29.5-.59.99-.89,1.47l18.2,35.94c4.33,8.54,4.33,18.63,0,27.17-4.32,8.54-12.46,14.52-21.9,16.09-3.72.62-7.78,1.09-12.05,1.39-4.02.28-7.78.43-11.16.43-3.13,0-6.55-.14-10.44-.44-4.37-.33-8.22-.84-11.79-1.55-3.32-.66-6.46-1.87-9.3-3.53-3.07,1.8-6.49,3.07-10.17,3.69-7.96,1.35-14.6,2-20.31,2Z"/><path class="cls-1" d="m1490.09,780.06c-12.13,0-23.09-1.87-32.58-5.55-10.36-4.02-19.13-9.9-26.07-17.49-6.75-7.37-11.78-16.15-14.92-26.08-2.73-8.63-4.12-18.01-4.12-27.86s1.43-19.18,4.24-27.97c3.1-9.7,7.92-18.38,14.33-25.79,6.62-7.65,14.86-13.72,24.49-18.05,9.51-4.26,20.26-6.41,31.99-6.41,10.32,0,19.93,1.9,28.57,5.65,8.72,3.78,16.3,9.14,22.54,15.91,6.18,6.72,10.92,14.73,14.09,23.82,2.92,8.4,4.4,17.43,4.4,26.86,0,4.29-.22,8.32-.64,11.98-.33,2.85-.63,5.17-.89,7.01-.68,4.77-2.45,9.14-5.04,12.88.96,4.71,1.51,9.54,1.64,14.43.33,12.86-7.55,24.51-19.61,28.99-13.73,5.09-28.01,7.68-42.43,7.68Zm1.11-85.13h0Z"/><path class="cls-1" d="m1555.79,779.18c-2.76,0-5.7-.12-8.73-.35-3.45-.27-7.16-.79-11.36-1.59-14.16-2.72-24.4-15.12-24.4-29.54v-90.29c0-14.87,10.86-27.51,25.56-29.74,6.14-.93,12.52-1.64,18.95-2.11,6.4-.46,12.65-.69,18.6-.69,7.25,0,14.49.69,21.51,2.04,8.91,1.72,17.13,4.97,24.44,9.67,8.38,5.39,15.14,12.73,20.09,21.82,4.94,9.08,7.44,19.97,7.44,32.39,0,11.36-2.22,21.56-6.6,30.32-4.38,8.76-10.4,16.05-17.9,21.67-6.9,5.17-14.71,8.91-23.24,11.12-.12.03-.23.06-.35.09-2.48,11.62-11.69,20.94-23.75,23.26-4.23.81-8.04,1.34-11.64,1.6-3.11.23-6.01.34-8.61.34Zm15.67-83.15c.16,0,.33.01.49.02l.41-2.04-.9-7.33v9.34Z"/><path class="cls-1" d="m1667.17,779.88c-8.21,0-16.01-.79-23.19-2.36-8.83-1.93-16.76-5.24-23.55-9.85-7.88-5.33-14.1-12.42-18.47-21.05-4.19-8.26-6.32-17.83-6.32-28.44,0-11.67,2.9-22.01,8.62-30.73.42-.64.85-1.28,1.3-1.9-.78-2.11-1.45-4.27-1.97-6.45-.73-3.01-1.26-6.2-1.57-9.42-.27-2.78-.4-5.78-.4-9.12,0-12.95,8.29-24.45,20.58-28.54,7.05-2.35,14.21-4.14,21.26-5.33,7.31-1.23,13.86-1.83,20.03-1.83,8.97,0,17.41,1.16,25.09,3.45,9.1,2.71,17.13,7.09,23.87,13.03,7.04,6.21,12.45,14.01,16.08,23.19,3.26,8.27,4.92,17.69,4.92,28.01v51.47c0,13.39-8.85,25.16-21.71,28.89-5.28,1.53-11.34,2.98-18.53,4.45-8.27,1.68-17.02,2.54-26.03,2.54Z"/><path class="cls-1" d="m1736.91,779.18c-2.96,0-6.07-.16-9.51-.48-3.15-.3-6.5-.74-10-1.3-14.59-2.33-25.33-14.92-25.33-29.7v-90.65c0-14.04,9.72-26.22,23.41-29.33,3.83-.87,7.7-1.49,11.52-1.85,6.79-.63,12.85-.65,19.99,0,4.02.37,7.98,1.01,11.81,1.92,13.55,3.22,23.12,15.33,23.12,29.26v90.65c0,14.85-10.84,27.48-25.52,29.73-3.56.55-6.9.97-9.93,1.26-3.5.33-6.61.49-9.56.49Z"/><path class="cls-1" d="m1786.09,779.18c-2.74,0-5.69-.12-8.76-.35-3.52-.27-7.28-.79-11.5-1.6-14.16-2.72-24.4-15.12-24.4-29.54v-90.29c0-15.14,11.25-27.92,26.27-29.84,5.93-.76,12.18-1.4,18.55-1.91,6.73-.53,13.17-.8,19.16-.8,21.06,0,37.4,4.59,49.96,14.03,14.6,10.99,22.63,27.48,22.63,46.44,0,6.57-.85,12.71-2.53,18.23-.91,2.99-1.98,5.81-3.21,8.46l11.27,21.56c4.39,8.4,4.57,18.37.48,26.92-4.09,8.55-11.96,14.67-21.25,16.52-3.47.69-7.25,1.21-11.25,1.53-8.01.65-15.45.56-22.58.01-4.64-.36-8.61-.94-12.14-1.76-1.48-.35-2.93-.81-4.32-1.37-1.89.79-3.88,1.4-5.96,1.8-4.25.82-8.11,1.34-11.78,1.61-3.15.23-6.06.34-8.65.34Z"/><path class="cls-1" d="m1318.43,778.57c-2.33,0-4.72-.12-7.11-.34-2.2-.21-4.5-.52-6.82-.93-12.52-2.17-22.32-11.97-24.5-24.48-.41-2.34-.72-4.65-.93-6.87-.23-2.34-.34-4.74-.34-7.09s.12-4.76.35-7.13c.2-2.15.52-4.47.92-6.81,2.26-12.97,12.69-22.97,25.75-24.68,1.93-.25,3.77-.46,5.53-.63,4.98-.46,9.44-.45,14.22,0,1.85.18,3.7.39,5.62.64,13.07,1.7,23.51,11.71,25.75,24.7.4,2.33.71,4.63.92,6.82.23,2.4.34,4.79.34,7.1s-.12,4.7-.34,7.08c-.21,2.23-.53,4.52-.93,6.85-2.17,12.53-11.98,22.33-24.5,24.5-2.33.4-4.62.71-6.82.93-2.38.23-4.77.34-7.11.34Z"/></g><path class="cls-1" d="m999.02,650.58c-8.48,0-16.91-.54-25.03-1.61-8.17-1.08-12.91-1.84-16.41-2.63-11.02-2.47-20.35-9.24-26.15-18.49-5.8,9.26-15.14,16.03-26.15,18.49-3.28.74-7.84,1.5-15.22,2.56-7.84,1.12-16.16,1.68-24.78,1.68s-16.49-.49-23.59-1.46c-6.18-.84-11.37-1.69-15.85-2.59-15.94-3.19-28.56-15.37-32.31-31.19l-60.76-256.36c-2.64-11.13-.58-22.85,5.7-32.41,6.27-9.56,16.21-16.12,27.46-18.12,8.01-1.43,15.92-2.45,23.51-3.04,7.4-.57,13.85-.84,19.75-.84,5.54,0,11.34.22,17.24.65,6.57.48,13.61,1.45,21.52,2.97,10.07,1.93,18.82,7.45,24.88,15.17,6.28-8,15.42-13.61,25.88-15.35,4.97-.83,10.53-1.6,16.52-2.28,13.06-1.48,26.52-1.64,40.51.02,6.24.74,11.53,1.56,16.21,2.5,10.43,2.09,19.43,8.02,25.46,16.3,6.08-8.35,15.19-14.33,25.77-16.36,7.77-1.49,14.38-2.45,20.21-2.94,10.91-.91,22.34-.89,34.69-.05,6.82.47,14.16,1.41,22.45,2.89,11.28,2.01,21.24,8.59,27.51,18.19,6.27,9.59,8.31,21.35,5.62,32.49l-61.84,256.72c-3.79,15.75-16.39,27.86-32.27,31.04-4.59.92-10.06,1.78-16.73,2.63-7.37.94-15.36,1.41-23.79,1.41Zm-.97-93.96l1.17,5.08,1.2-4.97c-.79-.01-1.58-.05-2.36-.11Zm-133.45-2.02l.62,2.63.61-2.49c-.41-.04-.82-.09-1.23-.14Zm69.09-139.26c.81.02,1.62.07,2.42.14l-1.26-5.6c-.39,1.82-.77,3.63-1.16,5.46Z"/><polygon class="cls-1" points="1134.81 304.58 1107.41 312.78 1276.24 779 1301.99 767.31 1280.43 707.64 1325.49 699.6 1270.84 681.1 1134.81 304.58"/><g><g><path d="m973.75,49.06c4.65,0,12.4,2.3,16.68,4.13,8.29,3.56,13.49,5.67,21.5,9.79,18.49,9.5,30.59,24.99,37.66,44.2,25.23,68.55,50.12,137.22,75.22,205.82,20.66,56.46,41.36,112.91,62.17,169.32,23.72,64.31,47.7,128.52,71.34,192.85,16.74,45.57,33.03,91.3,49.61,136.93.45,1.25,1,2.47,1.52,3.69,1.84,4.27,2.78,8.87,2.78,13.52v22.33c0,3.5-.29,7.05-1.51,10.34-.07.2-.13.4-.18.6-4.14,18.68-13.84,33.69-31.16,42.08-16.67,8.07-34.05,14.67-51.24,21.62-47.37,19.16-94.82,38.12-142.21,57.24-30.46,12.3-60.74,25.08-91.36,36.97-9.9,3.84-20.16,6.78-30.38,9.78-15.46,2.06-38.49-.74-56.28-5.66-1.89-1.04-3.72-2.16-5.45-3.42-13.23-9.63-21.6-23.27-26.92-38.8-11.73-34.28-23.57-68.53-35.46-102.76-20.37-58.63-41.12-117.12-61.12-175.87-18-52.89-35.26-106.03-52.71-159.1-11.93-36.28-23.7-72.62-35.43-108.96-16.22-50.24-32.5-100.47-48.43-150.81-10.83-34.23-21.1-68.64-31.59-102.98,0,0,0-.02,0-.02-2.6-14.39-2.84-27.74.04-39.72,1.96-6.69,3.91-13.38,7.47-19.06,14.47-23.1,37.22-33.77,63.4-37.7,17.87-2.69,35.85-4.66,53.76-7.1,20.13-2.75,40.21-5.86,60.35-8.45,20.2-2.6,40.47-4.6,60.68-7.13,23.29-2.91,46.54-6.08,69.78-9.37,5.87-.83,47.45-4.29,47.45-4.29Zm-325.93,92.39c-1.16,4.9-1.07,10.02.03,14.94,1.27,5.7,2.45,11.43,4.28,16.95,52.51,158.24,105.18,316.44,157.74,474.66,17.46,52.56,34.52,105.25,52.1,157.77,18.11,54.13,36.17,108.28,55.15,162.1,10.59,30.03,45.68,43.98,74.72,31.63,18.87-8.03,38.03-15.39,57.11-22.92,33.71-13.31,67.49-26.44,101.17-39.8,36.04-14.29,71.46-30.43,108.19-42.63,29.97-9.96,45.02-43.15,34.99-71.23-18.52-51.88-37.28-103.67-56.1-155.44-21.79-59.96-43.72-119.86-65.65-179.77-21.35-58.32-42.81-116.6-64.14-174.93-21.14-57.79-41.96-115.71-63.41-173.39-5.74-15.44-11.72-31.18-20.34-45.07-11.17-17.99-25-20.81-47.68-24.05-14.66-2.1-32.45,2.71-47.26,4.63-23.84,3.09-47.75,5.61-71.56,8.85-27.12,3.69-54.14,8.08-81.25,11.87-30.21,4.22-60.48,7.95-90.68,12.21-17.75,2.5-33.17,15.66-37.41,33.61Z"/><path class="cls-1" d="m973.75,49.06c4.65,0,12.4,2.3,16.68,4.13,8.29,3.56,13.49,5.67,21.5,9.79,18.49,9.5,30.59,24.99,37.66,44.2,25.23,68.55,50.12,137.22,75.22,205.82,20.66,56.46,41.36,112.91,62.17,169.32,23.72,64.31,47.7,128.52,71.34,192.85,16.74,45.57,33.03,91.3,49.61,136.93.45,1.25,1,2.47,1.52,3.69,1.84,4.27,2.78,8.87,2.78,13.52v22.33c0,3.5-.29,7.05-1.51,10.34-.07.2-.13.4-.18.6-4.14,18.68-13.84,33.69-31.16,42.08-16.67,8.07-34.05,14.67-51.24,21.62-47.37,19.16-94.82,38.12-142.21,57.24-30.46,12.3-60.74,25.08-91.36,36.97-9.9,3.84-20.16,6.78-30.38,9.78-3.5.47-7.38.68-11.51.68-14.1,0-31.01-2.54-44.77-6.35-1.89-1.04-3.72-2.16-5.45-3.42-13.23-9.63-21.6-23.27-26.92-38.8-11.73-34.28-23.57-68.53-35.46-102.76-20.37-58.63-41.12-117.12-61.12-175.87-18-52.89-35.26-106.03-52.71-159.1-11.93-36.28-23.7-72.62-35.43-108.96-16.22-50.25-32.5-100.47-48.42-150.81-10.83-34.23-21.1-68.64-31.59-102.98,0,0,0-.02,0-.02-2.6-14.39-2.84-27.74.04-39.72,1.96-6.69,3.91-13.38,7.47-19.06,14.47-23.1,37.22-33.77,63.4-37.7,17.87-2.69,35.85-4.66,53.76-7.1,20.13-2.75,40.21-5.86,60.35-8.45,20.2-2.6,40.47-4.6,60.68-7.13,23.29-2.91,46.54-6.08,69.78-9.37,5.87-.83,47.45-4.29,47.45-4.29m-4.04,954.93c7.44,0,14.96-1.44,22.13-4.49,18.87-8.03,38.03-15.39,57.11-22.92,33.71-13.31,67.49-26.44,101.17-39.8,36.04-14.29,71.46-30.43,108.19-42.63,29.97-9.96,45.02-43.15,34.99-71.23-18.52-51.88-37.28-103.67-56.1-155.44-21.79-59.96-43.72-119.86-65.65-179.77-21.35-58.32-42.81-116.6-64.14-174.93-21.14-57.79-41.96-115.71-63.41-173.39-5.74-15.44-11.72-31.18-20.34-45.07-11.17-17.99-25-20.81-47.68-24.05-2.54-.36-5.17-.52-7.86-.52-12.87,0-27.15,3.56-39.4,5.15-23.84,3.09-47.75,5.61-71.56,8.85-27.12,3.69-54.14,8.08-81.25,11.87-30.21,4.22-60.48,7.95-90.68,12.21-17.75,2.5-33.17,15.66-37.41,33.61-1.16,4.9-1.07,10.02.03,14.94,1.27,5.7,2.45,11.43,4.28,16.95,52.51,158.24,105.18,316.44,157.74,474.66,17.46,52.56,34.52,105.25,52.1,157.77,18.11,54.13,36.17,108.28,55.15,162.1,7.98,22.62,29.87,36.12,52.59,36.12m4.04-991.03c-1,0-2,.04-2.99.12-12.82,1.07-43.3,3.64-49.53,4.52-25.74,3.65-48.38,6.69-69.2,9.29-9.26,1.16-18.81,2.23-28.04,3.27-10.7,1.21-21.76,2.45-32.76,3.87-12.1,1.56-24.24,3.31-35.98,5-8.1,1.17-16.47,2.38-24.65,3.49-6.94.95-14.1,1.85-21.03,2.72-10.83,1.36-22.03,2.77-33.22,4.45-40.03,6.02-69.84,24.26-88.62,54.23-6.18,9.85-9.11,19.85-11.46,27.89l-.05.18c-.17.57-.32,1.15-.46,1.72-3.95,16.44-4.12,34.23-.51,54.36.26,1.48.6,2.93,1.04,4.37,2.95,9.67,5.89,19.35,8.83,29.02,7.39,24.35,15.03,49.52,22.87,74.29,13.43,42.45,27.33,85.49,40.77,127.1l7.72,23.9c11.15,34.55,23.17,71.69,35.49,109.15,3.63,11.03,7.24,22.06,10.86,33.08,13.59,41.44,27.65,84.29,41.97,126.37,13.26,38.95,27.05,78.37,40.39,116.48,6.95,19.86,13.9,39.72,20.81,59.6,13.31,38.32,24.89,71.88,35.4,102.6,8.26,24.14,21.66,43.08,39.83,56.3,2.88,2.09,5.93,4.02,9.32,5.88,2.45,1.34,5.04,2.4,7.74,3.14,17.32,4.79,37.66,7.65,54.4,7.65,5.82,0,11.3-.34,16.28-1,1.82-.24,3.62-.62,5.39-1.14l2.02-.59c10.12-2.96,20.59-6.03,31.27-10.18,20.13-7.82,40.28-16.08,59.77-24.08,10.51-4.31,21.37-8.76,32.03-13.07,21.42-8.65,42.86-17.26,64.3-25.87,25.54-10.26,51.96-20.88,77.93-31.38,3.33-1.35,6.67-2.68,10-4.01,14.21-5.68,28.9-11.54,43.44-18.59,25.77-12.48,43.11-34.91,50.25-64.92,2.63-8.19,2.96-15.58,2.96-20.58v-22.33c0-9.61-1.92-18.96-5.72-27.79l-.31-.71c-.16-.37-.33-.74-.48-1.11-6.4-17.61-12.75-35.23-19.1-52.85-9.94-27.58-20.22-56.09-30.52-84.13-13.47-36.65-27.26-73.85-40.6-109.82-10.27-27.69-20.53-55.37-30.75-83.08-18.4-49.88-38.14-103.65-62.14-169.23-9.53-26.03-19.02-52.08-28.52-78.12-15.27-41.88-31.06-85.19-46.73-127.76-10.56-28.68-29.59-50.76-55.04-63.84-8.07-4.15-13.89-6.63-20.62-9.51l-3.14-1.34c-2.75-1.18-17.15-7.06-30.91-7.06h0Zm-290.57,136.03c1.01-2.7,3.92-4.96,7.09-5.41,15.49-2.19,31.34-4.27,46.66-6.29,14.39-1.9,29.28-3.86,43.97-5.91,12.72-1.78,25.54-3.7,37.93-5.57,14.19-2.13,28.86-4.33,43.19-6.29,12.99-1.77,26.38-3.36,39.33-4.9,10.46-1.24,21.28-2.53,32.01-3.92,4.78-.62,9.52-1.44,14.11-2.24,7.43-1.29,15.11-2.61,20.65-2.61,1.38,0,2.26.08,2.75.16,19.27,2.76,19.82,3.64,22.12,7.35,6.52,10.5,11.43,23.16,17.18,38.61,14.21,38.22,28.4,77.24,42.12,114.97,7.06,19.41,14.12,38.83,21.22,58.23,11.29,30.86,22.61,61.71,33.93,92.56,10.08,27.46,20.15,54.91,30.21,82.38l1.43,3.92c21.08,57.6,42.88,117.16,64.19,175.77,16.81,46.25,36.62,100.87,56.03,155.24,1.64,4.59,1.23,9.98-1.12,14.8-1.37,2.8-4.65,7.84-11.26,10.03-26.24,8.72-51.65,19.27-76.22,29.47-11.13,4.62-22.64,9.4-33.89,13.86-18.85,7.47-38.07,15.01-56.66,22.3-14.82,5.81-29.65,11.63-44.46,17.48-3.93,1.55-7.87,3.1-11.81,4.65-15.12,5.94-30.75,12.07-46.17,18.63-2.51,1.07-5.21,1.61-8,1.61-7.12,0-15.62-3.72-18.55-12.03-17.81-50.51-35.14-102.29-51.9-152.38l-3.07-9.18c-9.89-29.56-19.8-59.71-29.38-88.87-7.41-22.55-15.07-45.88-22.69-68.82-21.57-64.93-43.15-129.85-64.74-194.78-30.5-91.73-62.03-186.58-92.99-279.88-1.03-3.11-1.92-7.14-2.86-11.4l-.35-1.58h0Z"/></g><path class="cls-1" d="m646.67,151.3c.15-5.6,1.24-14.54,6.75-23.07,8.53-13.21,22.72-17.81,31.8-20.39,34-9.68,61.77-8.17,90.68-12.21,27.11-3.79,54.13-8.18,81.25-11.87,23.81-3.24,47.73-5.76,71.56-8.85,14.82-1.92,29.55-5.93,44.36-6.11,20.63-.26,39.42,7.54,50.59,25.53,8.62,13.89,14.6,29.63,20.34,45.07,21.45,57.68,42.27,115.59,63.41,173.39,21.33,58.33,42.79,116.61,64.14,174.93,21.93,59.91,43.86,119.81,65.65,179.77,18.82,51.77,37.58,103.56,56.1,155.44,10.02,28.08-5.02,61.27-34.99,71.23-36.73,12.2-72.15,28.34-108.19,42.63-33.69,13.36-67.47,26.49-101.17,39.8-19.08,7.53-38.24,14.9-57.11,22.92-29.03,12.35-64.13-1.6-74.72-31.63-18.98-53.82-37.04-107.98-55.15-162.1-17.58-52.52-34.64-105.21-52.1-157.77-52.56-158.23-105.22-316.42-157.74-474.66-2.38-7.16-3.66-14.68-5.46-22.03Zm153.11-29.58c.04.17.07.34.11.51,8.63-1.36,17.25-2.82,25.89-4.06,20.64-2.97,41.35-5.57,61.91-9.05,3.2-.54,7.79-4.7,8.08-7.56.38-3.72-1.89-9.2-4.88-11.36-2.89-2.09-8.21-1.57-12.32-1.06-10.32,1.27-20.56,3.22-30.84,4.83-18.63,2.92-37.31,5.53-55.84,8.96-2.93.54-7.39,4.83-7.25,7.15.23,3.84,2.97,8.22,5.95,10.95,1.78,1.63,6.05.55,9.19.7Z"/><path d="m799.78,121.71c-3.15-.14-7.41.94-9.19-.7-2.98-2.73-5.71-7.11-5.95-10.95-.14-2.32,4.33-6.61,7.25-7.15,18.53-3.43,37.21-6.04,55.84-8.96,10.28-1.61,20.52-3.56,30.84-4.83,4.11-.51,9.43-1.03,12.32,1.06,2.98,2.15,5.26,7.64,4.88,11.36-.29,2.86-4.89,7.02-8.08,7.56-20.56,3.48-41.26,6.08-61.91,9.05-8.65,1.25-17.26,2.7-25.89,4.06-.04-.17-.07-.34-.11-.51Z"/></g><path class="cls-1" d="m1274.5,631.76l13.02,67.51,571.68-13.5c-21.73-24.87-15.01-42.96,12.7-86.5l-597.39,32.49Z"/><path class="cls-1" d="m640.24,602.34l-226.92-4.45-238.19-69.49,10.7-115.53h282.45l69.17-11.53,20.31-17.57c18.58,5.2,38.49,4.95,59.63-.24l22.38,30.94,2.77,105.09-2.3,82.78Z"/><g><path d="m252.6,545c7.91,17.26,13.18,35,15.82,53.21-6.95,2.64-13.43,4.8-19.42,6.47-5.99,1.68-11.75,2.93-17.26,3.78-5.52.84-10.97,1.44-16.36,1.8-5.39.36-10.97.54-16.72.54-20.38,0-38.29-3.3-53.75-9.89-15.46-6.59-28.41-15.76-38.83-27.51-10.43-11.74-18.28-25.76-23.55-42.07-5.28-16.3-7.91-34.03-7.91-53.21s2.75-36.97,8.27-53.39c5.51-16.42,13.48-30.62,23.91-42.61,10.43-11.98,23.31-21.33,38.65-28.05,15.34-6.71,32.72-10.07,52.13-10.07,11.51,0,22.41.84,32.72,2.52,10.3,1.68,21.81,5.03,34.52,10.07-.48,9.83-2.28,19.36-5.39,28.58-3.12,9.23-6.35,17.32-9.71,24.27-4.8-1.68-9.17-3.11-13.12-4.31-3.96-1.2-7.73-2.16-11.33-2.88-3.59-.72-7.19-1.26-10.79-1.62-3.6-.36-7.43-.54-11.51-.54-19.42,0-34.46,6.53-45.12,19.6-10.67,13.07-16,32.54-16,58.43,0,50.82,21.33,76.22,64,76.22,7.67,0,14.92-.72,21.75-2.16,6.83-1.44,15.16-3.83,24.99-7.19Z"/><path d="m336.73,533.13c2.64,9.83,7.25,16.78,13.84,20.85,6.59,4.08,15.28,6.11,26.07,6.11,6.95,0,14.74-.84,23.37-2.52,8.63-1.67,17.14-4.19,25.53-7.55,3.35,6.24,6.29,13.66,8.81,22.29,2.52,8.63,3.89,17.62,4.14,26.97-21.34,7.91-43.15,11.87-65.44,11.87-17.26,0-32.06-2.4-44.4-7.19-12.35-4.79-22.42-11.44-30.2-19.95-7.79-8.51-13.54-18.63-17.26-30.38-3.72-11.74-5.57-24.57-5.57-38.47s1.92-26.48,5.75-38.47c3.83-11.98,9.58-22.41,17.26-31.28,7.67-8.86,17.26-15.88,28.76-21.03,11.51-5.15,24.93-7.73,40.27-7.73,12.7,0,24.03,2.16,33.98,6.47,9.94,4.31,18.39,10.25,25.35,17.8,6.95,7.55,12.28,16.66,16,27.33,3.71,10.67,5.57,22.24,5.57,34.7,0,6.47-.3,12.29-.9,17.44-.6,5.16-1.14,9.41-1.62,12.76h-109.3Zm56.81-41.35c-.48-8.39-3.06-15.4-7.73-21.03-4.67-5.63-11.45-8.45-20.31-8.45-7.67,0-14.26,2.4-19.77,7.19-5.52,4.8-8.75,12.23-9.71,22.29h57.53Z"/><path d="m478.39,420.95c5.27-1.2,10.48-2.03,15.64-2.52,5.15-.48,10.12-.72,14.92-.72,4.55,0,9.47.24,14.74.72,5.27.48,10.43,1.32,15.46,2.52l-.36,135.19h67.95c1.2,4.8,1.98,9.23,2.34,13.3.36,4.08.54,8.03.54,11.86s-.18,7.85-.54,12.05c-.36,4.2-1.14,8.69-2.34,13.48h-128.72l.36-185.89Z"/><path d="m635.51,420.95c5.27-1.2,10.48-2.03,15.64-2.52,5.15-.48,10.12-.72,14.92-.72,4.55,0,9.47.24,14.74.72,5.27.48,10.43,1.32,15.46,2.52l-.36,135.19h67.95c1.2,4.8,1.98,9.23,2.34,13.3.36,4.08.54,8.03.54,11.86s-.18,7.85-.54,12.05c-.36,4.2-1.14,8.69-2.34,13.48h-128.72l.36-185.89Z"/><path d="m773.22,349.4c6.71-1.2,13.18-2.03,19.42-2.52,6.23-.48,11.74-.72,16.54-.72,4.55,0,9.29.18,14.2.54,4.91.36,10.48,1.14,16.72,2.34l29.84,164.31c5.99-26.37,11.98-53.87,17.98-82.52,5.99-28.64,11.86-55.91,17.62-81.8,4.31-.72,9.11-1.38,14.38-1.98,5.27-.6,10.66-.9,16.18-.9,4.79,0,9.71.3,14.74.9,5.03.6,9.35,1.26,12.94,1.98l37.39,166.11,29.84-166.11c6.23-1.2,11.5-1.98,15.82-2.34,4.31-.36,8.75-.54,13.3-.54,4.79,0,9.83.18,15.1.54,5.27.36,11.26,1.14,17.98,2.34l-61.84,256.72c-3.6.72-8.21,1.44-13.84,2.16-5.63.72-11.81,1.08-18.52,1.08s-13.25-.42-19.6-1.26c-6.35-.84-10.61-1.5-12.76-1.98l-34.16-148.85-36.32,148.85c-2.16.48-6.17,1.14-12.04,1.98-5.88.84-12.17,1.26-18.88,1.26s-12.71-.36-17.98-1.08c-5.28-.72-9.71-1.44-13.3-2.16l-60.76-256.36Z"/><path d="m1183.47,611.16c-15.1,0-28.4-2.28-39.91-6.83-11.51-4.55-21.16-11.08-28.94-19.6-7.79-8.51-13.66-18.7-17.62-30.56-3.96-11.86-5.93-24.99-5.93-39.37s1.98-27.98,5.93-40.09c3.96-12.1,9.83-22.47,17.62-31.1,7.79-8.63,17.44-15.28,28.94-19.95,11.5-4.67,24.81-7.01,39.91-7.01s28.76,2.34,40.27,7.01c11.5,4.67,21.15,11.32,28.94,19.95,7.79,8.63,13.66,19,17.62,31.1,3.96,12.11,5.93,25.47,5.93,40.09s-1.98,27.51-5.93,39.37c-3.96,11.87-9.83,22.06-17.62,30.56-7.79,8.51-17.44,15.05-28.94,19.6-11.51,4.55-24.93,6.83-40.27,6.83Zm0-49.26c10.55,0,18.39-4.07,23.55-12.23,5.15-8.15,7.73-19.77,7.73-34.88s-2.58-27.08-7.73-35.23c-5.16-8.15-13-12.23-23.55-12.23s-18.34,4.08-23.37,12.23c-5.03,8.15-7.55,19.9-7.55,35.23s2.52,26.73,7.55,34.88c5.03,8.15,12.82,12.23,23.37,12.23Z"/><path d="m1307.51,421.67c11.26-1.44,22.95-2.63,35.06-3.6,12.1-.95,23.55-1.44,34.34-1.44,29,0,50.75,5.45,65.26,16.36,14.5,10.91,21.75,26.19,21.75,45.84,0,7.43-.84,13.9-2.52,19.42-1.68,5.52-3.72,10.25-6.11,14.2-2.4,3.96-4.92,7.13-7.55,9.53-2.64,2.4-4.8,4.31-6.47,5.75l40.99,78.38c-4.8.96-10.13,1.67-16,2.16-5.88.48-11.57.72-17.08.72-6.71,0-13.19-.24-19.42-.72-6.24-.48-11.39-1.2-15.46-2.16l-39.91-84.85,5.03-2.88c8.39-4.79,14.14-9.89,17.26-15.28,3.11-5.39,4.67-11.2,4.67-17.44s-1.86-11.33-5.57-15.28c-3.72-3.96-9.65-5.93-17.8-5.93-4.56,0-8.03.24-10.43.72v141.3c-6.24,1.2-11.87,1.98-16.9,2.34-5.03.36-9.47.54-13.3.54-4.08,0-8.51-.18-13.3-.54-4.8-.36-10.31-1.14-16.54-2.34v-184.81Z"/><path d="m1504.9,420.95c5.27-1.2,10.48-2.03,15.64-2.52,5.15-.48,10.12-.72,14.92-.72s9.47.24,14.74.72c5.27.48,10.43,1.32,15.46,2.52v185.17c-6.24,1.2-11.87,1.98-16.9,2.34-5.03.36-9.47.54-13.3.54-4.08,0-8.63-.18-13.66-.54-5.03-.36-10.67-1.14-16.9-2.34v-185.17Zm66.52,88.81l42.43-88.81c4.31-.95,9.58-1.67,15.82-2.16,6.23-.48,11.74-.72,16.54-.72,6.23,0,12.52.24,18.88.72,6.35.48,11.44,1.2,15.28,2.16l-44.58,86.29,49.62,98.88c-4.31.96-9.71,1.67-16.18,2.16-6.47.48-12.11.72-16.9.72-6.24,0-12.41-.24-18.52-.72-6.11-.48-10.97-1.2-14.56-2.16l-47.82-96.36Z"/><path d="m1744,532.05c-12.71-3.59-23.25-9.71-31.64-18.34-8.39-8.63-12.59-20.37-12.59-35.24,0-9.35,1.92-17.85,5.75-25.53,3.83-7.67,9.22-14.2,16.18-19.59,6.95-5.39,15.16-9.53,24.63-12.41,9.47-2.88,19.95-4.31,31.46-4.31,9.11,0,19.06.96,29.84,2.88,10.79,1.92,21.45,4.67,32,8.27-.48,7.67-2.04,15.88-4.67,24.63-2.64,8.75-5.63,16.48-8.99,23.19-6.47-2.64-14.26-5.03-23.37-7.19-9.11-2.16-17.5-3.24-25.17-3.24-11.27,0-16.9,3.12-16.9,9.35,0,2.64,1.31,4.67,3.96,6.11,2.63,1.44,5.63,2.64,8.99,3.6l23.37,6.11c7.19,1.92,13.72,4.26,19.6,7.01,5.87,2.76,10.9,6.29,15.1,10.61,4.19,4.31,7.49,9.59,9.89,15.82,2.39,6.24,3.6,13.79,3.6,22.65s-1.86,17.62-5.57,25.53c-3.72,7.91-9.23,14.74-16.54,20.49-7.31,5.75-16.3,10.31-26.97,13.66-10.67,3.35-22.96,5.03-36.85,5.03-11.5,0-22.17-.84-32-2.52-9.83-1.68-20.26-4.55-31.28-8.63,1.2-16.3,5.63-32.84,13.3-49.62,7.67,3.6,15.7,6.29,24.09,8.09,8.39,1.8,16.78,2.7,25.17,2.7,2.88,0,5.87-.12,8.99-.36,3.11-.23,5.87-.77,8.27-1.62,2.39-.84,4.37-1.98,5.93-3.42,1.56-1.44,2.34-3.35,2.34-5.75,0-3.11-1.56-5.45-4.67-7.01-3.12-1.56-6.71-2.93-10.79-4.13l-24.45-6.83Z"/></g><path class="cls-1" d="m198.66,652.38c-25.91,0-49.48-4.45-70.06-13.22-21.09-8.99-39.13-21.83-53.63-38.15-14.22-16.02-25-35.16-32.02-56.88-6.58-20.34-9.93-42.56-9.93-66s3.51-46.03,10.44-66.64c7.22-21.52,17.97-40.58,31.95-56.65,14.46-16.62,32.41-29.69,53.36-38.85,20.57-9,43.72-13.56,68.8-13.56,13.66,0,26.91,1.03,39.39,3.06,13.23,2.16,27.75,6.35,43.16,12.45,16.55,6.56,27.09,22.92,26.22,40.7-.67,13.62-3.2,27.02-7.52,39.84-3.66,10.82-7.58,20.59-11.66,29.05-9.19,19.04-31.2,28.16-51.16,21.18-4.24-1.48-8.11-2.76-11.51-3.79-2.63-.79-5.13-1.43-7.39-1.89-2.26-.45-4.53-.79-6.77-1.02-2.21-.22-4.69-.33-7.37-.33-9.39,0-11.59,2.7-12.91,4.31-1.56,1.91-6.63,9.85-6.63,32.13s4.79,28.68,6.26,30.43c2.92,3.48,10.4,4.21,16.15,4.21,4.76,0,9.2-.43,13.19-1.27,3.55-.75,9.93-2.37,20.11-5.85,20.21-6.9,42.36,2.62,51.25,22.03,9.52,20.78,15.97,42.5,19.17,64.57,2.8,19.28-8.17,37.92-26.39,44.84-8.08,3.07-15.81,5.64-22.98,7.65-7.52,2.11-14.99,3.74-22.17,4.83-6.71,1.02-13.38,1.75-19.88,2.18-6.28.42-12.84.63-19.49.63Z"/><path class="cls-1" d="m373.05,652.74c-22.34,0-42.35-3.37-59.46-10.01-18.3-7.1-33.72-17.42-45.83-30.65-11.86-12.95-20.69-28.4-26.23-45.92-4.98-15.72-7.51-32.89-7.51-51.01s2.6-35.11,7.73-51.15c5.53-17.3,14.08-32.72,25.42-45.82,11.63-13.45,26.17-24.14,43.2-31.77,16.86-7.55,36.12-11.37,57.28-11.37,18.37,0,35.37,3.33,50.52,9.9,15.26,6.62,28.51,15.97,39.39,27.78,10.79,11.72,19.09,25.78,24.68,41.81,5.24,15.05,7.89,31.33,7.89,48.39,0,8-.4,15.48-1.17,22.22-.64,5.48-1.23,10.13-1.76,13.84-1.35,9.47-5.81,17.81-12.27,24.04,3.09,11.31,4.81,23.13,5.12,35.18.46,17.78-10.44,33.89-27.12,40.07-25.88,9.59-52.76,14.46-79.89,14.46Z"/><path class="cls-1" d="m606.75,648.43h-128.72c-11.04,0-21.63-4.39-29.43-12.21-7.8-7.82-12.17-18.42-12.15-29.46l.36-185.89c.04-19.39,13.47-36.18,32.38-40.47,6.98-1.59,14.04-2.72,20.97-3.37,6.46-.6,12.78-.9,18.8-.9s11.97.3,18.49.89c7.27.67,14.43,1.83,21.33,3.47,18.78,4.46,32.02,21.27,31.97,40.57l-.25,93.5h26.26c19.09,0,35.73,13,40.35,31.52,1.72,6.89,2.87,13.52,3.41,19.71.46,5.29.7,10.51.7,15.52s-.23,10.24-.69,15.59c-.55,6.37-1.7,13.1-3.43,20.02-4.62,18.52-21.26,31.51-40.35,31.51Z"/><path class="cls-1" d="m763.87,648.43h-128.72c-11.04,0-21.63-4.39-29.43-12.21-7.8-7.82-12.17-18.42-12.15-29.46l.36-185.89c.04-19.39,13.47-36.18,32.38-40.47,6.98-1.59,14.04-2.72,20.97-3.37,6.46-.6,12.78-.9,18.8-.9s11.97.3,18.49.89c7.27.67,14.43,1.83,21.33,3.47,18.78,4.46,32.02,21.27,31.97,40.57l-.25,93.5h26.26c19.09,0,35.73,13,40.35,31.52,1.72,6.89,2.87,13.52,3.41,19.71.46,5.29.7,10.51.7,15.52s-.23,10.24-.69,15.59c-.55,6.37-1.7,13.1-3.43,20.02-4.62,18.52-21.26,31.51-40.35,31.51Z"/><path class="cls-1" d="m1337.36,650.94c-5.09,0-10.62-.22-16.42-.66-6.41-.48-13.37-1.45-21.27-2.97-19.59-3.76-33.74-20.9-33.74-40.84v-184.81c0-20.93,15.56-38.6,36.32-41.25,11.82-1.51,24.28-2.79,37.03-3.8,13.2-1.04,25.85-1.57,37.63-1.57,38.61,0,68.13,8.08,90.25,24.7,25.1,18.88,38.35,46.22,38.35,79.08,0,11.48-1.45,22.08-4.31,31.5-2.61,8.58-5.97,16.34-10.01,23.12l27.92,53.39c6.07,11.61,6.32,25.4.66,37.22-5.65,11.82-16.54,20.28-29.39,22.84-6.31,1.26-13.28,2.21-20.7,2.82-7.04.57-13.92.86-20.5.86-7.72,0-15.32-.28-22.59-.84-8.48-.66-15.6-1.68-21.79-3.14-4.91-1.15-9.51-3.17-13.6-5.91-4.63,3.21-9.98,5.51-15.8,6.62-7.95,1.53-15.08,2.5-21.78,2.98-6.07.43-11.39.64-16.26.64Z"/><path class="cls-1" d="m1652.32,650.58c-7.26,0-14.58-.28-21.75-.84-8.75-.69-15.94-1.81-22.01-3.43-5.99-1.59-11.47-4.48-16.1-8.38-5.3,4.47-11.76,7.65-18.95,9.03-7.94,1.52-15.06,2.5-21.77,2.98-6.09.43-11.41.64-16.27.64s-10.62-.22-16.61-.64c-6.73-.48-13.85-1.46-21.79-2.98-19.59-3.76-33.74-20.9-33.74-40.84v-185.17c0-19.42,13.44-36.25,32.38-40.55,6.98-1.59,14.04-2.72,20.97-3.37,6.46-.6,12.78-.9,18.8-.9s11.97.3,18.49.89c7.27.67,14.43,1.83,21.33,3.47,5.33,1.27,10.22,3.53,14.48,6.56,4.48-3.18,9.6-5.49,15.11-6.7,6.28-1.39,13.34-2.38,21.59-3.01,7.42-.57,13.87-.84,19.75-.84,7.2,0,14.6.28,21.99.84,8.79.67,16.04,1.74,22.2,3.27,12.34,3.07,22.6,11.62,27.85,23.21,5.25,11.59,4.9,24.94-.94,36.24l-34.86,67.48,40.12,79.95c5.75,11.46,5.89,24.93.39,36.51-5.5,11.58-16.04,19.97-28.56,22.75-6.3,1.4-13.53,2.39-22.07,3.03-7.62.56-14.15.83-20,.83Z"/><path class="cls-1" d="m1759.1,652.74c-13.77,0-26.89-1.05-38.99-3.11-12.35-2.11-25.38-5.68-38.72-10.62-17.37-6.43-28.4-23.57-27.04-42.05,1.55-21.17,7.26-42.66,16.96-63.87.42-.93.88-1.84,1.37-2.73-7.83-11.99-14.49-28.93-14.49-51.89,0-15.82,3.41-30.67,10.15-44.13,6.62-13.24,16-24.64,27.89-33.86,10.92-8.48,23.72-14.99,38.02-19.33,13.34-4.05,27.99-6.11,43.55-6.11,11.49,0,23.98,1.18,37.11,3.52,12.84,2.29,25.67,5.6,38.14,9.85,17.76,6.05,29.27,23.25,28.09,41.97-.68,10.82-2.82,22.26-6.36,34.01-2.28,7.56-4.84,14.65-7.63,21.19,5.41,6.89,9.79,14.67,13.09,23.25,4.23,11.03,6.37,23.66,6.37,37.59,0,15.22-3.2,29.76-9.52,43.2-6.49,13.8-16.06,25.74-28.46,35.5-11.26,8.86-24.79,15.8-40.21,20.65-14.67,4.61-31.26,6.95-49.33,6.95Z"/><path class="cls-1" d="m1183.47,652.74c-20.28,0-38.85-3.28-55.2-9.75-17.37-6.87-32.29-17.03-44.33-30.2-11.7-12.78-20.59-28.08-26.39-45.48-5.35-16.05-8.07-33.73-8.07-52.52s2.69-36.78,7.99-53c5.76-17.63,14.6-33.12,26.28-46.06,11.98-13.28,26.84-23.58,44.16-30.61,16.44-6.68,35.13-10.07,55.56-10.07s39.48,3.39,55.92,10.07c17.31,7.03,32.16,17.33,44.16,30.61,11.68,12.94,20.52,28.44,26.28,46.05,5.3,16.23,7.99,34.07,7.99,53.01s-2.72,36.46-8.07,52.52c-5.79,17.38-14.68,32.69-26.4,45.49-12.04,13.16-26.96,23.32-44.32,30.18-16.36,6.47-35.05,9.75-55.57,9.75Zm12.23-124.52h0s0,0,0,0Z"/><g><path d="m252.6,545c7.91,17.26,13.18,35,15.82,53.21-6.95,2.64-13.43,4.8-19.42,6.47-5.99,1.68-11.75,2.93-17.26,3.78-5.52.84-10.97,1.44-16.36,1.8-5.39.36-10.97.54-16.72.54-20.38,0-38.29-3.3-53.75-9.89-15.46-6.59-28.41-15.76-38.83-27.51-10.43-11.74-18.28-25.76-23.55-42.07-5.28-16.3-7.91-34.03-7.91-53.21s2.75-36.97,8.27-53.39c5.51-16.42,13.48-30.62,23.91-42.61,10.43-11.98,23.31-21.33,38.65-28.05,15.34-6.71,32.72-10.07,52.13-10.07,11.51,0,22.41.84,32.72,2.52,10.3,1.68,21.81,5.03,34.52,10.07-.48,9.83-2.28,19.36-5.39,28.58-3.12,9.23-6.35,17.32-9.71,24.27-4.8-1.68-9.17-3.11-13.12-4.31-3.96-1.2-7.73-2.16-11.33-2.88-3.59-.72-7.19-1.26-10.79-1.62-3.6-.36-7.43-.54-11.51-.54-19.42,0-34.46,6.53-45.12,19.6-10.67,13.07-16,32.54-16,58.43,0,50.82,21.33,76.22,64,76.22,7.67,0,14.92-.72,21.75-2.16,6.83-1.44,15.16-3.83,24.99-7.19Z"/><path d="m336.73,533.13c2.64,9.83,7.25,16.78,13.84,20.85,6.59,4.08,15.28,6.11,26.07,6.11,6.95,0,14.74-.84,23.37-2.52,8.63-1.67,17.14-4.19,25.53-7.55,3.35,6.24,6.29,13.66,8.81,22.29,2.52,8.63,3.89,17.62,4.14,26.97-21.34,7.91-43.15,11.87-65.44,11.87-17.26,0-32.06-2.4-44.4-7.19-12.35-4.79-22.42-11.44-30.2-19.95-7.79-8.51-13.54-18.63-17.26-30.38-3.72-11.74-5.57-24.57-5.57-38.47s1.92-26.48,5.75-38.47c3.83-11.98,9.58-22.41,17.26-31.28,7.67-8.86,17.26-15.88,28.76-21.03,11.51-5.15,24.93-7.73,40.27-7.73,12.7,0,24.03,2.16,33.98,6.47,9.94,4.31,18.39,10.25,25.35,17.8,6.95,7.55,12.28,16.66,16,27.33,3.71,10.67,5.57,22.24,5.57,34.7,0,6.47-.3,12.29-.9,17.44-.6,5.16-1.14,9.41-1.62,12.76h-109.3Zm56.81-41.35c-.48-8.39-3.06-15.4-7.73-21.03-4.67-5.63-11.45-8.45-20.31-8.45-7.67,0-14.26,2.4-19.77,7.19-5.52,4.8-8.75,12.23-9.71,22.29h57.53Z"/><path d="m478.39,420.95c5.27-1.2,10.48-2.03,15.64-2.52,5.15-.48,10.12-.72,14.92-.72,4.55,0,9.47.24,14.74.72,5.27.48,10.43,1.32,15.46,2.52l-.36,135.19h67.95c1.2,4.8,1.98,9.23,2.34,13.3.36,4.08.54,8.03.54,11.86s-.18,7.85-.54,12.05c-.36,4.2-1.14,8.69-2.34,13.48h-128.72l.36-185.89Z"/><path d="m635.51,420.95c5.27-1.2,10.48-2.03,15.64-2.52,5.15-.48,10.12-.72,14.92-.72,4.55,0,9.47.24,14.74.72,5.27.48,10.43,1.32,15.46,2.52l-.36,135.19h67.95c1.2,4.8,1.98,9.23,2.34,13.3.36,4.08.54,8.03.54,11.86s-.18,7.85-.54,12.05c-.36,4.2-1.14,8.69-2.34,13.48h-128.72l.36-185.89Z"/><path d="m773.22,349.4c6.71-1.2,13.18-2.03,19.42-2.52,6.23-.48,11.74-.72,16.54-.72,4.55,0,9.29.18,14.2.54,4.91.36,10.48,1.14,16.72,2.34l29.84,164.31c5.99-26.37,11.98-53.87,17.98-82.52,5.99-28.64,11.86-55.91,17.62-81.8,4.31-.72,9.11-1.38,14.38-1.98,5.27-.6,10.66-.9,16.18-.9,4.79,0,9.71.3,14.74.9,5.03.6,9.35,1.26,12.94,1.98l37.39,166.11,29.84-166.11c6.23-1.2,11.5-1.98,15.82-2.34,4.31-.36,8.75-.54,13.3-.54,4.79,0,9.83.18,15.1.54,5.27.36,11.26,1.14,17.98,2.34l-61.84,256.72c-3.6.72-8.21,1.44-13.84,2.16-5.63.72-11.81,1.08-18.52,1.08s-13.25-.42-19.6-1.26c-6.35-.84-10.61-1.5-12.76-1.98l-34.16-148.85-36.32,148.85c-2.16.48-6.17,1.14-12.04,1.98-5.88.84-12.17,1.26-18.88,1.26s-12.71-.36-17.98-1.08c-5.28-.72-9.71-1.44-13.3-2.16l-60.76-256.36Z"/><path d="m1183.47,611.16c-15.1,0-28.4-2.28-39.91-6.83-11.51-4.55-21.16-11.08-28.94-19.6-7.79-8.51-13.66-18.7-17.62-30.56-3.96-11.86-5.93-24.99-5.93-39.37s1.98-27.98,5.93-40.09c3.96-12.1,9.83-22.47,17.62-31.1,7.79-8.63,17.44-15.28,28.94-19.95,11.5-4.67,24.81-7.01,39.91-7.01s28.76,2.34,40.27,7.01c11.5,4.67,21.15,11.32,28.94,19.95,7.79,8.63,13.66,19,17.62,31.1,3.96,12.11,5.93,25.47,5.93,40.09s-1.98,27.51-5.93,39.37c-3.96,11.87-9.83,22.06-17.62,30.56-7.79,8.51-17.44,15.05-28.94,19.6-11.51,4.55-24.93,6.83-40.27,6.83Zm0-49.26c10.55,0,18.39-4.07,23.55-12.23,5.15-8.15,7.73-19.77,7.73-34.88s-2.58-27.08-7.73-35.23c-5.16-8.15-13-12.23-23.55-12.23s-18.34,4.08-23.37,12.23c-5.03,8.15-7.55,19.9-7.55,35.23s2.52,26.73,7.55,34.88c5.03,8.15,12.82,12.23,23.37,12.23Z"/><path d="m1307.51,421.67c11.26-1.44,22.95-2.63,35.06-3.6,12.1-.95,23.55-1.44,34.34-1.44,29,0,50.75,5.45,65.26,16.36,14.5,10.91,21.75,26.19,21.75,45.84,0,7.43-.84,13.9-2.52,19.42-1.68,5.52-3.72,10.25-6.11,14.2-2.4,3.96-4.92,7.13-7.55,9.53-2.64,2.4-4.8,4.31-6.47,5.75l40.99,78.38c-4.8.96-10.13,1.67-16,2.16-5.88.48-11.57.72-17.08.72-6.71,0-13.19-.24-19.42-.72-6.24-.48-11.39-1.2-15.46-2.16l-39.91-84.85,5.03-2.88c8.39-4.79,14.14-9.89,17.26-15.28,3.11-5.39,4.67-11.2,4.67-17.44s-1.86-11.33-5.57-15.28c-3.72-3.96-9.65-5.93-17.8-5.93-4.56,0-8.03.24-10.43.72v141.3c-6.24,1.2-11.87,1.98-16.9,2.34-5.03.36-9.47.54-13.3.54-4.08,0-8.51-.18-13.3-.54-4.8-.36-10.31-1.14-16.54-2.34v-184.81Z"/><path d="m1504.9,420.95c5.27-1.2,10.48-2.03,15.64-2.52,5.15-.48,10.12-.72,14.92-.72s9.47.24,14.74.72c5.27.48,10.43,1.32,15.46,2.52v185.17c-6.24,1.2-11.87,1.98-16.9,2.34-5.03.36-9.47.54-13.3.54-4.08,0-8.63-.18-13.66-.54-5.03-.36-10.67-1.14-16.9-2.34v-185.17Zm66.52,88.81l42.43-88.81c4.31-.95,9.58-1.67,15.82-2.16,6.23-.48,11.74-.72,16.54-.72,6.23,0,12.52.24,18.88.72,6.35.48,11.44,1.2,15.28,2.16l-44.58,86.29,49.62,98.88c-4.31.96-9.71,1.67-16.18,2.16-6.47.48-12.11.72-16.9.72-6.24,0-12.41-.24-18.52-.72-6.11-.48-10.97-1.2-14.56-2.16l-47.82-96.36Z"/><path d="m1744,532.05c-12.71-3.59-23.25-9.71-31.64-18.34-8.39-8.63-12.59-20.37-12.59-35.24,0-9.35,1.92-17.85,5.75-25.53,3.83-7.67,9.22-14.2,16.18-19.59,6.95-5.39,15.16-9.53,24.63-12.41,9.47-2.88,19.95-4.31,31.46-4.31,9.11,0,19.06.96,29.84,2.88,10.79,1.92,21.45,4.67,32,8.27-.48,7.67-2.04,15.88-4.67,24.63-2.64,8.75-5.63,16.48-8.99,23.19-6.47-2.64-14.26-5.03-23.37-7.19-9.11-2.16-17.5-3.24-25.17-3.24-11.27,0-16.9,3.12-16.9,9.35,0,2.64,1.31,4.67,3.96,6.11,2.63,1.44,5.63,2.64,8.99,3.6l23.37,6.11c7.19,1.92,13.72,4.26,19.6,7.01,5.87,2.76,10.9,6.29,15.1,10.61,4.19,4.31,7.49,9.59,9.89,15.82,2.39,6.24,3.6,13.79,3.6,22.65s-1.86,17.62-5.57,25.53c-3.72,7.91-9.23,14.74-16.54,20.49-7.31,5.75-16.3,10.31-26.97,13.66-10.67,3.35-22.96,5.03-36.85,5.03-11.5,0-22.17-.84-32-2.52-9.83-1.68-20.26-4.55-31.28-8.63,1.2-16.3,5.63-32.84,13.3-49.62,7.67,3.6,15.7,6.29,24.09,8.09,8.39,1.8,16.78,2.7,25.17,2.7,2.88,0,5.87-.12,8.99-.36,3.11-.23,5.87-.77,8.27-1.62,2.39-.84,4.37-1.98,5.93-3.42,1.56-1.44,2.34-3.35,2.34-5.75,0-3.11-1.56-5.45-4.67-7.01-3.12-1.56-6.71-2.93-10.79-4.13l-24.45-6.83Z"/></g><path d="m1343.76,621.91c5.74-.59,11.04-1.14,15.9-1.67,4.86-.53,9.98-.79,15.37-.79,6.44,0,12.88.62,19.32,1.84,6.44,1.23,12.18,3.37,17.22,6.41,5.03,3.05,9.13,7.2,12.3,12.47s4.74,11.95,4.74,20.03c0,4.33-.5,8.23-1.49,11.68-1,3.45-2.28,6.53-3.86,9.22-1.58,2.7-3.34,5.04-5.27,7.03-1.93,1.99-3.84,3.69-5.71,5.09l27.4,54.11c-2.81.47-5.88.82-9.22,1.05-3.34.24-6.35.35-9.05.35-2.34,0-5.07-.12-8.17-.35-3.1-.24-5.83-.59-8.17-1.05l-24.94-57.44,1.58-.88c1.41-.7,2.96-1.87,4.66-3.51,1.7-1.64,3.28-3.6,4.74-5.88,1.46-2.28,2.69-4.83,3.69-7.64.99-2.81,1.49-5.74,1.49-8.78,0-5.86-1.64-10.13-4.92-12.82-3.28-2.69-7.32-4.04-12.12-4.04-1.17,0-2.17.06-2.99.18-.82.12-1.35.24-1.58.35v100.48c-6.21,1.05-11.3,1.58-15.28,1.58-4.33,0-9.55-.53-15.63-1.58v-125.43Z"/><path d="m1472.35,711.86c1.29,4.8,3.54,8.2,6.76,10.19,3.22,1.99,7.47,2.99,12.74,2.99,3.4,0,7.2-.41,11.42-1.23,4.22-.82,8.37-2.05,12.47-3.69,1.64,3.05,3.07,6.68,4.3,10.89,1.23,4.22,1.9,8.61,2.02,13.17-10.42,3.87-21.08,5.8-31.97,5.8-8.43,0-15.66-1.17-21.7-3.51-6.03-2.34-10.95-5.59-14.76-9.75-3.81-4.15-6.62-9.1-8.43-14.84-1.82-5.74-2.72-12-2.72-18.8s.94-12.94,2.81-18.8c1.87-5.86,4.68-10.95,8.43-15.28,3.75-4.33,8.43-7.76,14.05-10.28,5.62-2.52,12.18-3.78,19.68-3.78,6.21,0,11.74,1.06,16.6,3.16,4.86,2.11,8.99,5.01,12.38,8.7,3.39,3.69,6,8.14,7.82,13.35,1.81,5.21,2.72,10.86,2.72,16.95,0,3.16-.15,6-.44,8.52-.29,2.52-.56,4.6-.79,6.24h-53.4Zm27.76-20.2c-.24-4.1-1.49-7.52-3.78-10.28-2.28-2.75-5.59-4.13-9.93-4.13-3.75,0-6.97,1.17-9.66,3.51-2.7,2.34-4.28,5.97-4.74,10.89h28.11Z"/><path d="m1541.39,657.4c5.39-.82,10.92-1.43,16.6-1.84,5.68-.41,11.16-.62,16.43-.62s10.65.5,15.81,1.49c5.15,1,9.78,2.81,13.88,5.45,4.1,2.63,7.41,6.27,9.93,10.89,2.52,4.63,3.78,10.63,3.78,18.01,0,6.67-1.14,12.3-3.43,16.86s-5.3,8.26-9.05,11.07c-3.75,2.81-7.99,4.83-12.74,6.06-4.74,1.23-9.57,1.84-14.49,1.84-1.99,0-3.69-.06-5.09-.18-1.41-.12-2.28-.23-2.64-.35v21.61c-3.05.59-5.77.97-8.17,1.14-2.4.18-4.54.26-6.41.26-1.99,0-4.13-.09-6.41-.26-2.28-.18-4.95-.56-7.99-1.14v-90.29Zm28.99,46.55c.59.12,1.32.21,2.2.26.88.06,1.61.09,2.2.09,4.1,0,7.47-1.02,10.1-3.08,2.64-2.05,3.95-5.53,3.95-10.45,0-4.22-1.32-7.47-3.95-9.75-2.63-2.28-5.88-3.43-9.75-3.43h-2.02c-.88,0-1.79.06-2.72.18v26.17Z"/><path d="m1676.13,689.02c-.12-2.11-.7-3.86-1.76-5.27s-2.4-2.49-4.04-3.25c-1.64-.76-3.46-1.29-5.45-1.58-1.99-.29-4.04-.44-6.15-.44-2.81,0-6.09.32-9.84.97-3.75.65-7.61,1.67-11.6,3.07-1.05-1.99-1.96-3.8-2.72-5.45-.76-1.64-1.35-3.31-1.76-5.01-.41-1.7-.7-3.45-.88-5.27-.18-1.81-.26-3.89-.26-6.24,5.62-1.87,11.21-3.28,16.78-4.22,5.56-.94,10.57-1.41,15.02-1.41,6.09,0,11.6.73,16.51,2.2s9.1,3.72,12.56,6.76c3.45,3.05,6.12,6.94,7.99,11.68,1.87,4.74,2.81,10.39,2.81,16.95v51.47c-4.45,1.29-9.84,2.58-16.16,3.87-6.33,1.29-13,1.93-20.03,1.93-6.09,0-11.68-.56-16.78-1.67-5.09-1.11-9.46-2.9-13.09-5.36-3.63-2.46-6.47-5.71-8.52-9.75-2.05-4.04-3.07-8.99-3.07-14.84s1.23-10.48,3.69-14.23c2.46-3.75,5.62-6.73,9.49-8.96,3.86-2.22,8.14-3.78,12.82-4.66,4.68-.88,9.25-1.32,13.7-1.32h10.72Zm0,18.62h-10.01c-4.1,0-7.55.88-10.36,2.63-2.81,1.76-4.22,4.22-4.22,7.38,0,2.34.53,4.19,1.58,5.53,1.05,1.35,2.37,2.37,3.95,3.08,1.58.7,3.28,1.17,5.09,1.41,1.81.24,3.48.35,5.01.35,1.05,0,2.57-.12,4.57-.35,1.99-.24,3.45-.47,4.39-.7v-19.32Z"/><path d="m1722.15,657.05c2.57-.59,5.12-.99,7.64-1.23,2.52-.23,4.95-.35,7.29-.35,2.22,0,4.62.12,7.2.35,2.57.24,5.09.64,7.55,1.23v90.65c-3.05.47-5.8.82-8.26,1.06-2.46.23-4.69.35-6.68.35s-4.22-.12-6.68-.35c-2.46-.24-5.15-.59-8.08-1.06v-90.65Z"/><path d="m1771.51,657.4c5.5-.7,11.21-1.29,17.13-1.76,5.91-.47,11.51-.7,16.78-.7,14.17,0,24.8,2.66,31.88,7.99,7.09,5.33,10.63,12.8,10.63,22.4,0,3.63-.41,6.79-1.23,9.49-.82,2.7-1.82,5.01-2.99,6.94-1.17,1.93-2.4,3.49-3.69,4.66-1.29,1.17-2.34,2.11-3.16,2.81l20.03,38.29c-2.34.47-4.95.82-7.82,1.06-2.87.23-5.65.35-8.34.35-3.28,0-6.44-.12-9.49-.35-3.05-.24-5.56-.59-7.55-1.06l-19.5-41.46,2.46-1.41c4.1-2.34,6.91-4.83,8.43-7.47,1.52-2.63,2.28-5.47,2.28-8.52s-.91-5.53-2.72-7.47c-1.82-1.93-4.72-2.9-8.7-2.9-2.23,0-3.92.12-5.09.35v69.04c-3.05.59-5.8.97-8.26,1.14s-4.63.26-6.5.26c-1.99,0-4.16-.09-6.5-.26-2.34-.18-5.04-.56-8.08-1.14v-90.29Z"/><path d="m1309.63,730.07c1.59-.21,3.1-.38,4.55-.52,1.45-.14,2.86-.21,4.24-.21s2.79.07,4.24.21c1.45.14,2.97.31,4.55.52.27,1.59.48,3.1.62,4.55.14,1.45.21,2.86.21,4.24s-.07,2.79-.21,4.24c-.14,1.45-.35,2.97-.62,4.55-1.59.27-3.1.48-4.55.62s-2.86.21-4.24.21-2.79-.07-4.24-.21-2.97-.35-4.55-.62c-.28-1.59-.48-3.1-.62-4.55-.14-1.45-.21-2.86-.21-4.24s.07-2.79.21-4.24c.14-1.45.34-2.97.62-4.55Z"/><polygon class="cls-1" points="737.86 421.06 737.62 514.56 769.73 514.98 737.86 421.06"/></svg>